M48
;DRILL file {KiCad 4.0.1-stable} date 2019/02/07 19:56:55
;FORMAT={-:-/ absolute / metric / decimal}
FMAT,2
METRIC,TZ
T1C0.400
T2C0.650
T3C1.000
T4C2.200
%
G90
G05
M71
T1
X83.819Y-116.95
X84.35Y-111.
X84.556Y-98.539
X86.4Y-109.784
X86.686Y-108.526
X87.472Y-109.108
X90.459Y-111.68
X92.517Y-109.567
X92.93Y-97.438
X93.847Y-110.991
X94.43Y-101.836
X94.839Y-104.247
X94.86Y-106.855
X95.436Y-116.496
X96.252Y-116.814
X99.042Y-96.639
X100.27Y-116.433
X100.843Y-111.755
X101.589Y-112.113
X103.Y-99.776
X103.621Y-101.997
X104.081Y-113.822
X105.086Y-102.965
X105.086Y-104.181
X105.086Y-105.481
X106.518Y-104.628
X107.594Y-109.661
X108.049Y-108.444
X108.638Y-104.564
X108.936Y-102.627
X111.15Y-111.527
X111.732Y-108.079
X112.Y-92.61
X114.634Y-96.631
X117.342Y-99.362
X117.831Y-103.241
X118.425Y-108.726
X120.63Y-95.052
T2
X122.43Y-111.5
X122.43Y-114.4
X123.7Y-111.5
X123.7Y-114.4
T3
X85.25Y-91.43
X85.3Y-119.
X87.79Y-91.43
X89.06Y-147.9
X90.1Y-141.4
X90.33Y-91.43
X92.64Y-141.4
X92.87Y-91.43
X94.14Y-147.9
X95.3Y-119.
X95.41Y-91.43
X97.95Y-91.43
X98.4Y-118.2
X100.94Y-118.2
X109.8Y-114.1
X110.Y-119.
X111.06Y-147.9
X112.34Y-114.1
X112.6Y-141.4
X114.88Y-114.1
X115.14Y-141.4
X116.14Y-147.9
X117.42Y-114.1
X119.96Y-114.1
X120.Y-119.
T4
X81.7Y-91.75
X81.7Y-149.25
X81.75Y-118.25
X81.75Y-122.75
X123.25Y-91.75
X123.25Y-118.25
X123.25Y-122.75
X123.25Y-149.25
T0
M30
