G04 #@! TF.FileFunction,Legend,Bot*
%FSLAX46Y46*%
G04 Gerber Fmt 4.6, Leading zero omitted, Abs format (unit mm)*
G04 Created by KiCad (PCBNEW 4.0.1-stable) date 2019/02/07 19:56:50*
%MOMM*%
G01*
G04 APERTURE LIST*
%ADD10C,0.100000*%
%ADD11C,0.150000*%
%ADD12C,0.120000*%
%ADD13C,0.200000*%
%ADD14C,0.254000*%
%ADD15C,2.600000*%
%ADD16R,2.400000X2.000000*%
%ADD17R,1.600000X1.150000*%
%ADD18R,1.900000X1.650000*%
%ADD19R,2.000000X2.400000*%
%ADD20R,1.300000X1.600000*%
%ADD21R,1.600000X1.300000*%
%ADD22R,2.100000X2.100000*%
%ADD23O,2.100000X2.100000*%
%ADD24R,1.400000X1.400000*%
%ADD25O,1.400000X1.400000*%
%ADD26R,1.400000X3.900000*%
%ADD27R,1.900000X3.800000*%
%ADD28C,1.924000*%
%ADD29R,1.200000X1.400000*%
%ADD30R,2.600000X2.600000*%
%ADD31R,1.600000X1.100000*%
%ADD32R,1.600000X1.400000*%
%ADD33R,3.200000X1.400000*%
%ADD34R,2.300000X1.700000*%
%ADD35R,1.925000X0.850000*%
%ADD36R,0.800000X1.600000*%
%ADD37R,1.350000X2.150000*%
%ADD38R,3.600000X2.150000*%
%ADD39R,1.100000X1.925000*%
G04 APERTURE END LIST*
D10*
D11*
X113909524Y-122479762D02*
X113766667Y-122527381D01*
X113528571Y-122527381D01*
X113433333Y-122479762D01*
X113385714Y-122432143D01*
X113338095Y-122336905D01*
X113338095Y-122241667D01*
X113385714Y-122146429D01*
X113433333Y-122098810D01*
X113528571Y-122051190D01*
X113719048Y-122003571D01*
X113814286Y-121955952D01*
X113861905Y-121908333D01*
X113909524Y-121813095D01*
X113909524Y-121717857D01*
X113861905Y-121622619D01*
X113814286Y-121575000D01*
X113719048Y-121527381D01*
X113480952Y-121527381D01*
X113338095Y-121575000D01*
X112957143Y-122241667D02*
X112480952Y-122241667D01*
X113052381Y-122527381D02*
X112719048Y-121527381D01*
X112385714Y-122527381D01*
X112195238Y-121527381D02*
X111623809Y-121527381D01*
X111909524Y-122527381D02*
X111909524Y-121527381D01*
X111338095Y-122479762D02*
X111195238Y-122527381D01*
X110957142Y-122527381D01*
X110861904Y-122479762D01*
X110814285Y-122432143D01*
X110766666Y-122336905D01*
X110766666Y-122241667D01*
X110814285Y-122146429D01*
X110861904Y-122098810D01*
X110957142Y-122051190D01*
X111147619Y-122003571D01*
X111242857Y-121955952D01*
X111290476Y-121908333D01*
X111338095Y-121813095D01*
X111338095Y-121717857D01*
X111290476Y-121622619D01*
X111242857Y-121575000D01*
X111147619Y-121527381D01*
X110909523Y-121527381D01*
X110766666Y-121575000D01*
X110338095Y-121527381D02*
X110338095Y-122336905D01*
X110290476Y-122432143D01*
X110242857Y-122479762D01*
X110147619Y-122527381D01*
X109957142Y-122527381D01*
X109861904Y-122479762D01*
X109814285Y-122432143D01*
X109766666Y-122336905D01*
X109766666Y-121527381D01*
X109290476Y-122527381D02*
X109290476Y-121527381D01*
X108957142Y-122241667D01*
X108623809Y-121527381D01*
X108623809Y-122527381D01*
X108195238Y-122241667D02*
X107719047Y-122241667D01*
X108290476Y-122527381D02*
X107957143Y-121527381D01*
X107623809Y-122527381D01*
X107290476Y-122146429D02*
X106528571Y-122146429D01*
X105528571Y-122527381D02*
X106100000Y-122527381D01*
X105814286Y-122527381D02*
X105814286Y-121527381D01*
X105909524Y-121670238D01*
X106004762Y-121765476D01*
X106100000Y-121813095D01*
X104909524Y-121527381D02*
X104814285Y-121527381D01*
X104719047Y-121575000D01*
X104671428Y-121622619D01*
X104623809Y-121717857D01*
X104576190Y-121908333D01*
X104576190Y-122146429D01*
X104623809Y-122336905D01*
X104671428Y-122432143D01*
X104719047Y-122479762D01*
X104814285Y-122527381D01*
X104909524Y-122527381D01*
X105004762Y-122479762D01*
X105052381Y-122432143D01*
X105100000Y-122336905D01*
X105147619Y-122146429D01*
X105147619Y-121908333D01*
X105100000Y-121717857D01*
X105052381Y-121622619D01*
X105004762Y-121575000D01*
X104909524Y-121527381D01*
X103957143Y-121527381D02*
X103861904Y-121527381D01*
X103766666Y-121575000D01*
X103719047Y-121622619D01*
X103671428Y-121717857D01*
X103623809Y-121908333D01*
X103623809Y-122146429D01*
X103671428Y-122336905D01*
X103719047Y-122432143D01*
X103766666Y-122479762D01*
X103861904Y-122527381D01*
X103957143Y-122527381D01*
X104052381Y-122479762D01*
X104100000Y-122432143D01*
X104147619Y-122336905D01*
X104195238Y-122146429D01*
X104195238Y-121908333D01*
X104147619Y-121717857D01*
X104100000Y-121622619D01*
X104052381Y-121575000D01*
X103957143Y-121527381D01*
X103195238Y-122527381D02*
X103195238Y-121527381D01*
X103100000Y-122146429D02*
X102814285Y-122527381D01*
X102814285Y-121860714D02*
X103195238Y-122241667D01*
X102385714Y-122527381D02*
X102385714Y-121860714D01*
X102385714Y-121527381D02*
X102433333Y-121575000D01*
X102385714Y-121622619D01*
X102338095Y-121575000D01*
X102385714Y-121527381D01*
X102385714Y-121622619D01*
X101909524Y-121860714D02*
X101909524Y-122527381D01*
X101909524Y-121955952D02*
X101861905Y-121908333D01*
X101766667Y-121860714D01*
X101623809Y-121860714D01*
X101528571Y-121908333D01*
X101480952Y-122003571D01*
X101480952Y-122527381D01*
X101052381Y-122479762D02*
X100909524Y-122527381D01*
X100671428Y-122527381D01*
X100576190Y-122479762D01*
X100528571Y-122432143D01*
X100480952Y-122336905D01*
X100480952Y-122241667D01*
X100528571Y-122146429D01*
X100576190Y-122098810D01*
X100671428Y-122051190D01*
X100861905Y-122003571D01*
X100957143Y-121955952D01*
X101004762Y-121908333D01*
X101052381Y-121813095D01*
X101052381Y-121717857D01*
X101004762Y-121622619D01*
X100957143Y-121575000D01*
X100861905Y-121527381D01*
X100623809Y-121527381D01*
X100480952Y-121575000D01*
X100100000Y-122241667D02*
X99623809Y-122241667D01*
X100195238Y-122527381D02*
X99861905Y-121527381D01*
X99528571Y-122527381D01*
X99338095Y-121527381D02*
X98766666Y-121527381D01*
X99052381Y-122527381D02*
X99052381Y-121527381D01*
X97766666Y-121860714D02*
X97528571Y-122527381D01*
X97290475Y-121860714D01*
X96528570Y-122479762D02*
X96623808Y-122527381D01*
X96814285Y-122527381D01*
X96909523Y-122479762D01*
X96957142Y-122384524D01*
X96957142Y-122003571D01*
X96909523Y-121908333D01*
X96814285Y-121860714D01*
X96623808Y-121860714D01*
X96528570Y-121908333D01*
X96480951Y-122003571D01*
X96480951Y-122098810D01*
X96957142Y-122194048D01*
X96052380Y-122527381D02*
X96052380Y-121860714D01*
X96052380Y-122051190D02*
X96004761Y-121955952D01*
X95957142Y-121908333D01*
X95861904Y-121860714D01*
X95766665Y-121860714D01*
X95004760Y-121860714D02*
X95004760Y-122527381D01*
X95242856Y-121479762D02*
X95480951Y-122194048D01*
X94861903Y-122194048D01*
X94480951Y-122432143D02*
X94433332Y-122479762D01*
X94480951Y-122527381D01*
X94528570Y-122479762D01*
X94480951Y-122432143D01*
X94480951Y-122527381D01*
X94099999Y-121527381D02*
X93433332Y-121527381D01*
X93861904Y-122527381D01*
X113242857Y-123601190D02*
X113290476Y-123553571D01*
X113385714Y-123505952D01*
X113480952Y-123505952D01*
X113576190Y-123553571D01*
X113623810Y-123601190D01*
X113671429Y-123696429D01*
X113671429Y-123791667D01*
X113623810Y-123886905D01*
X113576190Y-123934524D01*
X113480952Y-123982143D01*
X113385714Y-123982143D01*
X113290476Y-123934524D01*
X113242857Y-123886905D01*
X113242857Y-123505952D02*
X113242857Y-123886905D01*
X113195238Y-123934524D01*
X113147619Y-123934524D01*
X113052381Y-123886905D01*
X113004762Y-123791667D01*
X113004762Y-123553571D01*
X113100000Y-123410714D01*
X113242857Y-123315476D01*
X113433333Y-123267857D01*
X113623810Y-123315476D01*
X113766667Y-123410714D01*
X113861905Y-123553571D01*
X113909524Y-123744048D01*
X113861905Y-123934524D01*
X113766667Y-124077381D01*
X113623810Y-124172619D01*
X113433333Y-124220238D01*
X113242857Y-124172619D01*
X113100000Y-124077381D01*
X112814286Y-124172619D02*
X112052381Y-124172619D01*
X111909524Y-123410714D02*
X111671429Y-124077381D01*
X111433333Y-123410714D02*
X111671429Y-124077381D01*
X111766667Y-124315476D01*
X111814286Y-124363095D01*
X111909524Y-124410714D01*
X111052381Y-124077381D02*
X111052381Y-123410714D01*
X111052381Y-123505952D02*
X111004762Y-123458333D01*
X110909524Y-123410714D01*
X110766666Y-123410714D01*
X110671428Y-123458333D01*
X110623809Y-123553571D01*
X110623809Y-124077381D01*
X110623809Y-123553571D02*
X110576190Y-123458333D01*
X110480952Y-123410714D01*
X110338095Y-123410714D01*
X110242857Y-123458333D01*
X110195238Y-123553571D01*
X110195238Y-124077381D01*
X109861905Y-123410714D02*
X109480953Y-123410714D01*
X109719048Y-123077381D02*
X109719048Y-123934524D01*
X109671429Y-124029762D01*
X109576191Y-124077381D01*
X109480953Y-124077381D01*
X109385714Y-124172619D02*
X108623809Y-124172619D01*
X107861904Y-124077381D02*
X108433333Y-124077381D01*
X108147619Y-124077381D02*
X108147619Y-123077381D01*
X108242857Y-123220238D01*
X108338095Y-123315476D01*
X108433333Y-123363095D01*
X106909523Y-124077381D02*
X107480952Y-124077381D01*
X107195238Y-124077381D02*
X107195238Y-123077381D01*
X107290476Y-123220238D01*
X107385714Y-123315476D01*
X107480952Y-123363095D01*
X106576190Y-123077381D02*
X105909523Y-123077381D01*
X106338095Y-124077381D01*
X113242857Y-125151190D02*
X113290476Y-125103571D01*
X113385714Y-125055952D01*
X113480952Y-125055952D01*
X113576190Y-125103571D01*
X113623810Y-125151190D01*
X113671429Y-125246429D01*
X113671429Y-125341667D01*
X113623810Y-125436905D01*
X113576190Y-125484524D01*
X113480952Y-125532143D01*
X113385714Y-125532143D01*
X113290476Y-125484524D01*
X113242857Y-125436905D01*
X113242857Y-125055952D02*
X113242857Y-125436905D01*
X113195238Y-125484524D01*
X113147619Y-125484524D01*
X113052381Y-125436905D01*
X113004762Y-125341667D01*
X113004762Y-125103571D01*
X113100000Y-124960714D01*
X113242857Y-124865476D01*
X113433333Y-124817857D01*
X113623810Y-124865476D01*
X113766667Y-124960714D01*
X113861905Y-125103571D01*
X113909524Y-125294048D01*
X113861905Y-125484524D01*
X113766667Y-125627381D01*
X113623810Y-125722619D01*
X113433333Y-125770238D01*
X113242857Y-125722619D01*
X113100000Y-125627381D01*
X112576191Y-124960714D02*
X112576191Y-125817857D01*
X112623810Y-125913095D01*
X112719048Y-125960714D01*
X112766667Y-125960714D01*
X112576191Y-124627381D02*
X112623810Y-124675000D01*
X112576191Y-124722619D01*
X112528572Y-124675000D01*
X112576191Y-124627381D01*
X112576191Y-124722619D01*
X112100001Y-124960714D02*
X112100001Y-125817857D01*
X112147620Y-125913095D01*
X112242858Y-125960714D01*
X112290477Y-125960714D01*
X112100001Y-124627381D02*
X112147620Y-124675000D01*
X112100001Y-124722619D01*
X112052382Y-124675000D01*
X112100001Y-124627381D01*
X112100001Y-124722619D01*
X111861906Y-125722619D02*
X111100001Y-125722619D01*
X110909525Y-125579762D02*
X110814287Y-125627381D01*
X110623811Y-125627381D01*
X110528572Y-125579762D01*
X110480953Y-125484524D01*
X110480953Y-125436905D01*
X110528572Y-125341667D01*
X110623811Y-125294048D01*
X110766668Y-125294048D01*
X110861906Y-125246429D01*
X110909525Y-125151190D01*
X110909525Y-125103571D01*
X110861906Y-125008333D01*
X110766668Y-124960714D01*
X110623811Y-124960714D01*
X110528572Y-125008333D01*
X110052382Y-124960714D02*
X110052382Y-125960714D01*
X110052382Y-125008333D02*
X109957144Y-124960714D01*
X109766667Y-124960714D01*
X109671429Y-125008333D01*
X109623810Y-125055952D01*
X109576191Y-125151190D01*
X109576191Y-125436905D01*
X109623810Y-125532143D01*
X109671429Y-125579762D01*
X109766667Y-125627381D01*
X109957144Y-125627381D01*
X110052382Y-125579762D01*
X109147620Y-125627381D02*
X109147620Y-124960714D01*
X109147620Y-125151190D02*
X109100001Y-125055952D01*
X109052382Y-125008333D01*
X108957144Y-124960714D01*
X108861905Y-124960714D01*
X108528572Y-125627381D02*
X108528572Y-124960714D01*
X108528572Y-124627381D02*
X108576191Y-124675000D01*
X108528572Y-124722619D01*
X108480953Y-124675000D01*
X108528572Y-124627381D01*
X108528572Y-124722619D01*
X108052382Y-124960714D02*
X108052382Y-125627381D01*
X108052382Y-125055952D02*
X108004763Y-125008333D01*
X107909525Y-124960714D01*
X107766667Y-124960714D01*
X107671429Y-125008333D01*
X107623810Y-125103571D01*
X107623810Y-125627381D01*
X106719048Y-124960714D02*
X106719048Y-125770238D01*
X106766667Y-125865476D01*
X106814286Y-125913095D01*
X106909525Y-125960714D01*
X107052382Y-125960714D01*
X107147620Y-125913095D01*
X106719048Y-125579762D02*
X106814286Y-125627381D01*
X107004763Y-125627381D01*
X107100001Y-125579762D01*
X107147620Y-125532143D01*
X107195239Y-125436905D01*
X107195239Y-125151190D01*
X107147620Y-125055952D01*
X107100001Y-125008333D01*
X107004763Y-124960714D01*
X106814286Y-124960714D01*
X106719048Y-125008333D01*
X106290477Y-125579762D02*
X106195239Y-125627381D01*
X106004763Y-125627381D01*
X105909524Y-125579762D01*
X105861905Y-125484524D01*
X105861905Y-125436905D01*
X105909524Y-125341667D01*
X106004763Y-125294048D01*
X106147620Y-125294048D01*
X106242858Y-125246429D01*
X106290477Y-125151190D01*
X106290477Y-125103571D01*
X106242858Y-125008333D01*
X106147620Y-124960714D01*
X106004763Y-124960714D01*
X105909524Y-125008333D01*
X113242857Y-126701190D02*
X113290476Y-126653571D01*
X113385714Y-126605952D01*
X113480952Y-126605952D01*
X113576190Y-126653571D01*
X113623810Y-126701190D01*
X113671429Y-126796429D01*
X113671429Y-126891667D01*
X113623810Y-126986905D01*
X113576190Y-127034524D01*
X113480952Y-127082143D01*
X113385714Y-127082143D01*
X113290476Y-127034524D01*
X113242857Y-126986905D01*
X113242857Y-126605952D02*
X113242857Y-126986905D01*
X113195238Y-127034524D01*
X113147619Y-127034524D01*
X113052381Y-126986905D01*
X113004762Y-126891667D01*
X113004762Y-126653571D01*
X113100000Y-126510714D01*
X113242857Y-126415476D01*
X113433333Y-126367857D01*
X113623810Y-126415476D01*
X113766667Y-126510714D01*
X113861905Y-126653571D01*
X113909524Y-126844048D01*
X113861905Y-127034524D01*
X113766667Y-127177381D01*
X113623810Y-127272619D01*
X113433333Y-127320238D01*
X113242857Y-127272619D01*
X113100000Y-127177381D01*
X112671429Y-127177381D02*
X112147619Y-126510714D01*
X112671429Y-126510714D02*
X112147619Y-127177381D01*
X111242857Y-127177381D02*
X111814286Y-127177381D01*
X111528572Y-127177381D02*
X111528572Y-126177381D01*
X111623810Y-126320238D01*
X111719048Y-126415476D01*
X111814286Y-126463095D01*
X110623810Y-126177381D02*
X110528571Y-126177381D01*
X110433333Y-126225000D01*
X110385714Y-126272619D01*
X110338095Y-126367857D01*
X110290476Y-126558333D01*
X110290476Y-126796429D01*
X110338095Y-126986905D01*
X110385714Y-127082143D01*
X110433333Y-127129762D01*
X110528571Y-127177381D01*
X110623810Y-127177381D01*
X110719048Y-127129762D01*
X110766667Y-127082143D01*
X110814286Y-126986905D01*
X110861905Y-126796429D01*
X110861905Y-126558333D01*
X110814286Y-126367857D01*
X110766667Y-126272619D01*
X110719048Y-126225000D01*
X110623810Y-126177381D01*
X109814286Y-127177381D02*
X109623810Y-127177381D01*
X109528571Y-127129762D01*
X109480952Y-127082143D01*
X109385714Y-126939286D01*
X109338095Y-126748810D01*
X109338095Y-126367857D01*
X109385714Y-126272619D01*
X109433333Y-126225000D01*
X109528571Y-126177381D01*
X109719048Y-126177381D01*
X109814286Y-126225000D01*
X109861905Y-126272619D01*
X109909524Y-126367857D01*
X109909524Y-126605952D01*
X109861905Y-126701190D01*
X109814286Y-126748810D01*
X109719048Y-126796429D01*
X109528571Y-126796429D01*
X109433333Y-126748810D01*
X109385714Y-126701190D01*
X109338095Y-126605952D01*
X108861905Y-127177381D02*
X108671429Y-127177381D01*
X108576190Y-127129762D01*
X108528571Y-127082143D01*
X108433333Y-126939286D01*
X108385714Y-126748810D01*
X108385714Y-126367857D01*
X108433333Y-126272619D01*
X108480952Y-126225000D01*
X108576190Y-126177381D01*
X108766667Y-126177381D01*
X108861905Y-126225000D01*
X108909524Y-126272619D01*
X108957143Y-126367857D01*
X108957143Y-126605952D01*
X108909524Y-126701190D01*
X108861905Y-126748810D01*
X108766667Y-126796429D01*
X108576190Y-126796429D01*
X108480952Y-126748810D01*
X108433333Y-126701190D01*
X108385714Y-126605952D01*
X107909524Y-127177381D02*
X107719048Y-127177381D01*
X107623809Y-127129762D01*
X107576190Y-127082143D01*
X107480952Y-126939286D01*
X107433333Y-126748810D01*
X107433333Y-126367857D01*
X107480952Y-126272619D01*
X107528571Y-126225000D01*
X107623809Y-126177381D01*
X107814286Y-126177381D01*
X107909524Y-126225000D01*
X107957143Y-126272619D01*
X108004762Y-126367857D01*
X108004762Y-126605952D01*
X107957143Y-126701190D01*
X107909524Y-126748810D01*
X107814286Y-126796429D01*
X107623809Y-126796429D01*
X107528571Y-126748810D01*
X107480952Y-126701190D01*
X107433333Y-126605952D01*
X106957143Y-127177381D02*
X106766667Y-127177381D01*
X106671428Y-127129762D01*
X106623809Y-127082143D01*
X106528571Y-126939286D01*
X106480952Y-126748810D01*
X106480952Y-126367857D01*
X106528571Y-126272619D01*
X106576190Y-126225000D01*
X106671428Y-126177381D01*
X106861905Y-126177381D01*
X106957143Y-126225000D01*
X107004762Y-126272619D01*
X107052381Y-126367857D01*
X107052381Y-126605952D01*
X107004762Y-126701190D01*
X106957143Y-126748810D01*
X106861905Y-126796429D01*
X106671428Y-126796429D01*
X106576190Y-126748810D01*
X106528571Y-126701190D01*
X106480952Y-126605952D01*
X83429762Y-95890476D02*
X83477381Y-96033333D01*
X83477381Y-96271429D01*
X83429762Y-96366667D01*
X83382143Y-96414286D01*
X83286905Y-96461905D01*
X83191667Y-96461905D01*
X83096429Y-96414286D01*
X83048810Y-96366667D01*
X83001190Y-96271429D01*
X82953571Y-96080952D01*
X82905952Y-95985714D01*
X82858333Y-95938095D01*
X82763095Y-95890476D01*
X82667857Y-95890476D01*
X82572619Y-95938095D01*
X82525000Y-95985714D01*
X82477381Y-96080952D01*
X82477381Y-96319048D01*
X82525000Y-96461905D01*
X83191667Y-96842857D02*
X83191667Y-97319048D01*
X83477381Y-96747619D02*
X82477381Y-97080952D01*
X83477381Y-97414286D01*
X82477381Y-97604762D02*
X82477381Y-98176191D01*
X83477381Y-97890476D02*
X82477381Y-97890476D01*
X83429762Y-98461905D02*
X83477381Y-98604762D01*
X83477381Y-98842858D01*
X83429762Y-98938096D01*
X83382143Y-98985715D01*
X83286905Y-99033334D01*
X83191667Y-99033334D01*
X83096429Y-98985715D01*
X83048810Y-98938096D01*
X83001190Y-98842858D01*
X82953571Y-98652381D01*
X82905952Y-98557143D01*
X82858333Y-98509524D01*
X82763095Y-98461905D01*
X82667857Y-98461905D01*
X82572619Y-98509524D01*
X82525000Y-98557143D01*
X82477381Y-98652381D01*
X82477381Y-98890477D01*
X82525000Y-99033334D01*
X82477381Y-99461905D02*
X83286905Y-99461905D01*
X83382143Y-99509524D01*
X83429762Y-99557143D01*
X83477381Y-99652381D01*
X83477381Y-99842858D01*
X83429762Y-99938096D01*
X83382143Y-99985715D01*
X83286905Y-100033334D01*
X82477381Y-100033334D01*
X83477381Y-100509524D02*
X82477381Y-100509524D01*
X83191667Y-100842858D01*
X82477381Y-101176191D01*
X83477381Y-101176191D01*
X83191667Y-101604762D02*
X83191667Y-102080953D01*
X83477381Y-101509524D02*
X82477381Y-101842857D01*
X83477381Y-102176191D01*
X85027381Y-96461905D02*
X85027381Y-95890476D01*
X85027381Y-96176190D02*
X84027381Y-96176190D01*
X84170238Y-96080952D01*
X84265476Y-95985714D01*
X84313095Y-95890476D01*
X84027381Y-97080952D02*
X84027381Y-97176191D01*
X84075000Y-97271429D01*
X84122619Y-97319048D01*
X84217857Y-97366667D01*
X84408333Y-97414286D01*
X84646429Y-97414286D01*
X84836905Y-97366667D01*
X84932143Y-97319048D01*
X84979762Y-97271429D01*
X85027381Y-97176191D01*
X85027381Y-97080952D01*
X84979762Y-96985714D01*
X84932143Y-96938095D01*
X84836905Y-96890476D01*
X84646429Y-96842857D01*
X84408333Y-96842857D01*
X84217857Y-96890476D01*
X84122619Y-96938095D01*
X84075000Y-96985714D01*
X84027381Y-97080952D01*
X84027381Y-98033333D02*
X84027381Y-98128572D01*
X84075000Y-98223810D01*
X84122619Y-98271429D01*
X84217857Y-98319048D01*
X84408333Y-98366667D01*
X84646429Y-98366667D01*
X84836905Y-98319048D01*
X84932143Y-98271429D01*
X84979762Y-98223810D01*
X85027381Y-98128572D01*
X85027381Y-98033333D01*
X84979762Y-97938095D01*
X84932143Y-97890476D01*
X84836905Y-97842857D01*
X84646429Y-97795238D01*
X84408333Y-97795238D01*
X84217857Y-97842857D01*
X84122619Y-97890476D01*
X84075000Y-97938095D01*
X84027381Y-98033333D01*
X85027381Y-98795238D02*
X84027381Y-98795238D01*
X84646429Y-98890476D02*
X85027381Y-99176191D01*
X84360714Y-99176191D02*
X84741667Y-98795238D01*
X85027381Y-99604762D02*
X84360714Y-99604762D01*
X84027381Y-99604762D02*
X84075000Y-99557143D01*
X84122619Y-99604762D01*
X84075000Y-99652381D01*
X84027381Y-99604762D01*
X84122619Y-99604762D01*
X84360714Y-100080952D02*
X85027381Y-100080952D01*
X84455952Y-100080952D02*
X84408333Y-100128571D01*
X84360714Y-100223809D01*
X84360714Y-100366667D01*
X84408333Y-100461905D01*
X84503571Y-100509524D01*
X85027381Y-100509524D01*
X84979762Y-100938095D02*
X85027381Y-101080952D01*
X85027381Y-101319048D01*
X84979762Y-101414286D01*
X84932143Y-101461905D01*
X84836905Y-101509524D01*
X84741667Y-101509524D01*
X84646429Y-101461905D01*
X84598810Y-101414286D01*
X84551190Y-101319048D01*
X84503571Y-101128571D01*
X84455952Y-101033333D01*
X84408333Y-100985714D01*
X84313095Y-100938095D01*
X84217857Y-100938095D01*
X84122619Y-100985714D01*
X84075000Y-101033333D01*
X84027381Y-101128571D01*
X84027381Y-101366667D01*
X84075000Y-101509524D01*
X84741667Y-101890476D02*
X84741667Y-102366667D01*
X85027381Y-101795238D02*
X84027381Y-102128571D01*
X85027381Y-102461905D01*
X84027381Y-102652381D02*
X84027381Y-103223810D01*
X85027381Y-102938095D02*
X84027381Y-102938095D01*
X85910714Y-95842857D02*
X86577381Y-96080952D01*
X85910714Y-96319048D01*
X86529762Y-97080953D02*
X86577381Y-96985715D01*
X86577381Y-96795238D01*
X86529762Y-96700000D01*
X86434524Y-96652381D01*
X86053571Y-96652381D01*
X85958333Y-96700000D01*
X85910714Y-96795238D01*
X85910714Y-96985715D01*
X85958333Y-97080953D01*
X86053571Y-97128572D01*
X86148810Y-97128572D01*
X86244048Y-96652381D01*
X86577381Y-97557143D02*
X85910714Y-97557143D01*
X86101190Y-97557143D02*
X86005952Y-97604762D01*
X85958333Y-97652381D01*
X85910714Y-97747619D01*
X85910714Y-97842858D01*
X85910714Y-98604763D02*
X86577381Y-98604763D01*
X85529762Y-98366667D02*
X86244048Y-98128572D01*
X86244048Y-98747620D01*
X86482143Y-99128572D02*
X86529762Y-99176191D01*
X86577381Y-99128572D01*
X86529762Y-99080953D01*
X86482143Y-99128572D01*
X86577381Y-99128572D01*
X85577381Y-99509524D02*
X85577381Y-100176191D01*
X86577381Y-99747619D01*
X87651190Y-96557143D02*
X87603571Y-96509524D01*
X87555952Y-96414286D01*
X87555952Y-96319048D01*
X87603571Y-96223810D01*
X87651190Y-96176190D01*
X87746429Y-96128571D01*
X87841667Y-96128571D01*
X87936905Y-96176190D01*
X87984524Y-96223810D01*
X88032143Y-96319048D01*
X88032143Y-96414286D01*
X87984524Y-96509524D01*
X87936905Y-96557143D01*
X87555952Y-96557143D02*
X87936905Y-96557143D01*
X87984524Y-96604762D01*
X87984524Y-96652381D01*
X87936905Y-96747619D01*
X87841667Y-96795238D01*
X87603571Y-96795238D01*
X87460714Y-96700000D01*
X87365476Y-96557143D01*
X87317857Y-96366667D01*
X87365476Y-96176190D01*
X87460714Y-96033333D01*
X87603571Y-95938095D01*
X87794048Y-95890476D01*
X87984524Y-95938095D01*
X88127381Y-96033333D01*
X88222619Y-96176190D01*
X88270238Y-96366667D01*
X88222619Y-96557143D01*
X88127381Y-96700000D01*
X88222619Y-96985714D02*
X88222619Y-97747619D01*
X87460714Y-97890476D02*
X88127381Y-98128571D01*
X87460714Y-98366667D02*
X88127381Y-98128571D01*
X88365476Y-98033333D01*
X88413095Y-97985714D01*
X88460714Y-97890476D01*
X88127381Y-98747619D02*
X87460714Y-98747619D01*
X87555952Y-98747619D02*
X87508333Y-98795238D01*
X87460714Y-98890476D01*
X87460714Y-99033334D01*
X87508333Y-99128572D01*
X87603571Y-99176191D01*
X88127381Y-99176191D01*
X87603571Y-99176191D02*
X87508333Y-99223810D01*
X87460714Y-99319048D01*
X87460714Y-99461905D01*
X87508333Y-99557143D01*
X87603571Y-99604762D01*
X88127381Y-99604762D01*
X87460714Y-99938095D02*
X87460714Y-100319047D01*
X87127381Y-100080952D02*
X87984524Y-100080952D01*
X88079762Y-100128571D01*
X88127381Y-100223809D01*
X88127381Y-100319047D01*
X88222619Y-100414286D02*
X88222619Y-101176191D01*
X88127381Y-101938096D02*
X88127381Y-101366667D01*
X88127381Y-101652381D02*
X87127381Y-101652381D01*
X87270238Y-101557143D01*
X87365476Y-101461905D01*
X87413095Y-101366667D01*
X88127381Y-102890477D02*
X88127381Y-102319048D01*
X88127381Y-102604762D02*
X87127381Y-102604762D01*
X87270238Y-102509524D01*
X87365476Y-102414286D01*
X87413095Y-102319048D01*
X87127381Y-103223810D02*
X87127381Y-103890477D01*
X88127381Y-103461905D01*
X89201190Y-96557143D02*
X89153571Y-96509524D01*
X89105952Y-96414286D01*
X89105952Y-96319048D01*
X89153571Y-96223810D01*
X89201190Y-96176190D01*
X89296429Y-96128571D01*
X89391667Y-96128571D01*
X89486905Y-96176190D01*
X89534524Y-96223810D01*
X89582143Y-96319048D01*
X89582143Y-96414286D01*
X89534524Y-96509524D01*
X89486905Y-96557143D01*
X89105952Y-96557143D02*
X89486905Y-96557143D01*
X89534524Y-96604762D01*
X89534524Y-96652381D01*
X89486905Y-96747619D01*
X89391667Y-96795238D01*
X89153571Y-96795238D01*
X89010714Y-96700000D01*
X88915476Y-96557143D01*
X88867857Y-96366667D01*
X88915476Y-96176190D01*
X89010714Y-96033333D01*
X89153571Y-95938095D01*
X89344048Y-95890476D01*
X89534524Y-95938095D01*
X89677381Y-96033333D01*
X89772619Y-96176190D01*
X89820238Y-96366667D01*
X89772619Y-96557143D01*
X89677381Y-96700000D01*
X89010714Y-97223809D02*
X89867857Y-97223809D01*
X89963095Y-97176190D01*
X90010714Y-97080952D01*
X90010714Y-97033333D01*
X88677381Y-97223809D02*
X88725000Y-97176190D01*
X88772619Y-97223809D01*
X88725000Y-97271428D01*
X88677381Y-97223809D01*
X88772619Y-97223809D01*
X89010714Y-97699999D02*
X89867857Y-97699999D01*
X89963095Y-97652380D01*
X90010714Y-97557142D01*
X90010714Y-97509523D01*
X88677381Y-97699999D02*
X88725000Y-97652380D01*
X88772619Y-97699999D01*
X88725000Y-97747618D01*
X88677381Y-97699999D01*
X88772619Y-97699999D01*
X89772619Y-97938094D02*
X89772619Y-98699999D01*
X89629762Y-98890475D02*
X89677381Y-98985713D01*
X89677381Y-99176189D01*
X89629762Y-99271428D01*
X89534524Y-99319047D01*
X89486905Y-99319047D01*
X89391667Y-99271428D01*
X89344048Y-99176189D01*
X89344048Y-99033332D01*
X89296429Y-98938094D01*
X89201190Y-98890475D01*
X89153571Y-98890475D01*
X89058333Y-98938094D01*
X89010714Y-99033332D01*
X89010714Y-99176189D01*
X89058333Y-99271428D01*
X89010714Y-99747618D02*
X90010714Y-99747618D01*
X89058333Y-99747618D02*
X89010714Y-99842856D01*
X89010714Y-100033333D01*
X89058333Y-100128571D01*
X89105952Y-100176190D01*
X89201190Y-100223809D01*
X89486905Y-100223809D01*
X89582143Y-100176190D01*
X89629762Y-100128571D01*
X89677381Y-100033333D01*
X89677381Y-99842856D01*
X89629762Y-99747618D01*
X89677381Y-100652380D02*
X89010714Y-100652380D01*
X89201190Y-100652380D02*
X89105952Y-100699999D01*
X89058333Y-100747618D01*
X89010714Y-100842856D01*
X89010714Y-100938095D01*
X89677381Y-101271428D02*
X89010714Y-101271428D01*
X88677381Y-101271428D02*
X88725000Y-101223809D01*
X88772619Y-101271428D01*
X88725000Y-101319047D01*
X88677381Y-101271428D01*
X88772619Y-101271428D01*
X89010714Y-101747618D02*
X89677381Y-101747618D01*
X89105952Y-101747618D02*
X89058333Y-101795237D01*
X89010714Y-101890475D01*
X89010714Y-102033333D01*
X89058333Y-102128571D01*
X89153571Y-102176190D01*
X89677381Y-102176190D01*
X89010714Y-103080952D02*
X89820238Y-103080952D01*
X89915476Y-103033333D01*
X89963095Y-102985714D01*
X90010714Y-102890475D01*
X90010714Y-102747618D01*
X89963095Y-102652380D01*
X89629762Y-103080952D02*
X89677381Y-102985714D01*
X89677381Y-102795237D01*
X89629762Y-102699999D01*
X89582143Y-102652380D01*
X89486905Y-102604761D01*
X89201190Y-102604761D01*
X89105952Y-102652380D01*
X89058333Y-102699999D01*
X89010714Y-102795237D01*
X89010714Y-102985714D01*
X89058333Y-103080952D01*
X89629762Y-103509523D02*
X89677381Y-103604761D01*
X89677381Y-103795237D01*
X89629762Y-103890476D01*
X89534524Y-103938095D01*
X89486905Y-103938095D01*
X89391667Y-103890476D01*
X89344048Y-103795237D01*
X89344048Y-103652380D01*
X89296429Y-103557142D01*
X89201190Y-103509523D01*
X89153571Y-103509523D01*
X89058333Y-103557142D01*
X89010714Y-103652380D01*
X89010714Y-103795237D01*
X89058333Y-103890476D01*
X90751190Y-96557143D02*
X90703571Y-96509524D01*
X90655952Y-96414286D01*
X90655952Y-96319048D01*
X90703571Y-96223810D01*
X90751190Y-96176190D01*
X90846429Y-96128571D01*
X90941667Y-96128571D01*
X91036905Y-96176190D01*
X91084524Y-96223810D01*
X91132143Y-96319048D01*
X91132143Y-96414286D01*
X91084524Y-96509524D01*
X91036905Y-96557143D01*
X90655952Y-96557143D02*
X91036905Y-96557143D01*
X91084524Y-96604762D01*
X91084524Y-96652381D01*
X91036905Y-96747619D01*
X90941667Y-96795238D01*
X90703571Y-96795238D01*
X90560714Y-96700000D01*
X90465476Y-96557143D01*
X90417857Y-96366667D01*
X90465476Y-96176190D01*
X90560714Y-96033333D01*
X90703571Y-95938095D01*
X90894048Y-95890476D01*
X91084524Y-95938095D01*
X91227381Y-96033333D01*
X91322619Y-96176190D01*
X91370238Y-96366667D01*
X91322619Y-96557143D01*
X91227381Y-96700000D01*
X91227381Y-97128571D02*
X90560714Y-97652381D01*
X90560714Y-97128571D02*
X91227381Y-97652381D01*
X91227381Y-98557143D02*
X91227381Y-97985714D01*
X91227381Y-98271428D02*
X90227381Y-98271428D01*
X90370238Y-98176190D01*
X90465476Y-98080952D01*
X90513095Y-97985714D01*
X90227381Y-99176190D02*
X90227381Y-99271429D01*
X90275000Y-99366667D01*
X90322619Y-99414286D01*
X90417857Y-99461905D01*
X90608333Y-99509524D01*
X90846429Y-99509524D01*
X91036905Y-99461905D01*
X91132143Y-99414286D01*
X91179762Y-99366667D01*
X91227381Y-99271429D01*
X91227381Y-99176190D01*
X91179762Y-99080952D01*
X91132143Y-99033333D01*
X91036905Y-98985714D01*
X90846429Y-98938095D01*
X90608333Y-98938095D01*
X90417857Y-98985714D01*
X90322619Y-99033333D01*
X90275000Y-99080952D01*
X90227381Y-99176190D01*
X91227381Y-99985714D02*
X91227381Y-100176190D01*
X91179762Y-100271429D01*
X91132143Y-100319048D01*
X90989286Y-100414286D01*
X90798810Y-100461905D01*
X90417857Y-100461905D01*
X90322619Y-100414286D01*
X90275000Y-100366667D01*
X90227381Y-100271429D01*
X90227381Y-100080952D01*
X90275000Y-99985714D01*
X90322619Y-99938095D01*
X90417857Y-99890476D01*
X90655952Y-99890476D01*
X90751190Y-99938095D01*
X90798810Y-99985714D01*
X90846429Y-100080952D01*
X90846429Y-100271429D01*
X90798810Y-100366667D01*
X90751190Y-100414286D01*
X90655952Y-100461905D01*
X91227381Y-100938095D02*
X91227381Y-101128571D01*
X91179762Y-101223810D01*
X91132143Y-101271429D01*
X90989286Y-101366667D01*
X90798810Y-101414286D01*
X90417857Y-101414286D01*
X90322619Y-101366667D01*
X90275000Y-101319048D01*
X90227381Y-101223810D01*
X90227381Y-101033333D01*
X90275000Y-100938095D01*
X90322619Y-100890476D01*
X90417857Y-100842857D01*
X90655952Y-100842857D01*
X90751190Y-100890476D01*
X90798810Y-100938095D01*
X90846429Y-101033333D01*
X90846429Y-101223810D01*
X90798810Y-101319048D01*
X90751190Y-101366667D01*
X90655952Y-101414286D01*
X91227381Y-101890476D02*
X91227381Y-102080952D01*
X91179762Y-102176191D01*
X91132143Y-102223810D01*
X90989286Y-102319048D01*
X90798810Y-102366667D01*
X90417857Y-102366667D01*
X90322619Y-102319048D01*
X90275000Y-102271429D01*
X90227381Y-102176191D01*
X90227381Y-101985714D01*
X90275000Y-101890476D01*
X90322619Y-101842857D01*
X90417857Y-101795238D01*
X90655952Y-101795238D01*
X90751190Y-101842857D01*
X90798810Y-101890476D01*
X90846429Y-101985714D01*
X90846429Y-102176191D01*
X90798810Y-102271429D01*
X90751190Y-102319048D01*
X90655952Y-102366667D01*
X91227381Y-102842857D02*
X91227381Y-103033333D01*
X91179762Y-103128572D01*
X91132143Y-103176191D01*
X90989286Y-103271429D01*
X90798810Y-103319048D01*
X90417857Y-103319048D01*
X90322619Y-103271429D01*
X90275000Y-103223810D01*
X90227381Y-103128572D01*
X90227381Y-102938095D01*
X90275000Y-102842857D01*
X90322619Y-102795238D01*
X90417857Y-102747619D01*
X90655952Y-102747619D01*
X90751190Y-102795238D01*
X90798810Y-102842857D01*
X90846429Y-102938095D01*
X90846429Y-103128572D01*
X90798810Y-103223810D01*
X90751190Y-103271429D01*
X90655952Y-103319048D01*
D12*
X88500000Y-115070000D02*
X86500000Y-115070000D01*
X86500000Y-113030000D02*
X88500000Y-113030000D01*
X88500000Y-117420000D02*
X86500000Y-117420000D01*
X86500000Y-115380000D02*
X88500000Y-115380000D01*
X92550000Y-117550000D02*
X93250000Y-117550000D01*
X93250000Y-116350000D02*
X92550000Y-116350000D01*
X99000000Y-106750000D02*
X99700000Y-106750000D01*
X99700000Y-105550000D02*
X99000000Y-105550000D01*
X113900000Y-104250000D02*
X112900000Y-104250000D01*
X112900000Y-102550000D02*
X113900000Y-102550000D01*
X122400000Y-95350000D02*
X123100000Y-95350000D01*
X123100000Y-94150000D02*
X122400000Y-94150000D01*
X115300000Y-90200000D02*
X114600000Y-90200000D01*
X114600000Y-91400000D02*
X115300000Y-91400000D01*
X81950000Y-110800000D02*
X82650000Y-110800000D01*
X82650000Y-109600000D02*
X81950000Y-109600000D01*
X124570000Y-97950000D02*
X124570000Y-99950000D01*
X122530000Y-99950000D02*
X122530000Y-97950000D01*
X115300000Y-91700000D02*
X114600000Y-91700000D01*
X114600000Y-92900000D02*
X115300000Y-92900000D01*
X122530000Y-107000000D02*
X122530000Y-105000000D01*
X124570000Y-105000000D02*
X124570000Y-107000000D01*
X120080000Y-107050000D02*
X120080000Y-105050000D01*
X122120000Y-105050000D02*
X122120000Y-107050000D01*
X122270000Y-97900000D02*
X122270000Y-99900000D01*
X120230000Y-99900000D02*
X120230000Y-97900000D01*
X119800000Y-101000000D02*
X118700000Y-101000000D01*
X118700000Y-101000000D02*
X118700000Y-98400000D01*
X119800000Y-101000000D02*
X119800000Y-98400000D01*
X116050000Y-103800000D02*
X116050000Y-102700000D01*
X116050000Y-102700000D02*
X118650000Y-102700000D01*
X116050000Y-103800000D02*
X118650000Y-103800000D01*
X117200000Y-91350000D02*
X117200000Y-90250000D01*
X117200000Y-90250000D02*
X119800000Y-90250000D01*
X117200000Y-91350000D02*
X119800000Y-91350000D01*
X117200000Y-92850000D02*
X117200000Y-91750000D01*
X117200000Y-91750000D02*
X119800000Y-91750000D01*
X117200000Y-92850000D02*
X119800000Y-92850000D01*
X119750000Y-112650000D02*
X118650000Y-112650000D01*
X118650000Y-112650000D02*
X118650000Y-110050000D01*
X119750000Y-112650000D02*
X119750000Y-110050000D01*
X100450000Y-111450000D02*
X100450000Y-112550000D01*
X100450000Y-112550000D02*
X97850000Y-112550000D01*
X100450000Y-111450000D02*
X97850000Y-111450000D01*
X84600000Y-112350000D02*
X84600000Y-111250000D01*
X84600000Y-111250000D02*
X87200000Y-111250000D01*
X84600000Y-112350000D02*
X87200000Y-112350000D01*
X119930000Y-95550000D02*
X119930000Y-94550000D01*
X118570000Y-94550000D02*
X118570000Y-95550000D01*
D13*
X108200000Y-97900000D02*
X108200000Y-93796000D01*
X100200000Y-97900000D02*
X100200000Y-93815670D01*
X100200000Y-97900000D02*
X102444330Y-97900000D01*
X108200000Y-97900000D02*
X105964330Y-97900000D01*
X104200000Y-90300000D02*
X106495330Y-90300000D01*
X104200000Y-90300000D02*
X101874000Y-90300000D01*
D14*
X101796420Y-99046670D02*
G75*
G03X101796420Y-99046670I-178090J0D01*
G01*
D13*
X106950000Y-117850000D02*
X107681000Y-117850000D01*
X109850000Y-117850000D02*
X109119000Y-117850000D01*
X106950000Y-117850000D02*
X106950000Y-116621000D01*
X109850000Y-117850000D02*
X109850000Y-116621000D01*
D14*
X107530400Y-115108000D02*
G75*
G03X107530400Y-115108000I-86400J0D01*
G01*
D12*
X104300000Y-119580000D02*
X105300000Y-119580000D01*
X105300000Y-118220000D02*
X104300000Y-118220000D01*
X92350000Y-93120000D02*
X91350000Y-93120000D01*
X91350000Y-94480000D02*
X92350000Y-94480000D01*
X98850000Y-100130000D02*
X99850000Y-100130000D01*
X99850000Y-98770000D02*
X98850000Y-98770000D01*
X98850000Y-101680000D02*
X99850000Y-101680000D01*
X99850000Y-100320000D02*
X98850000Y-100320000D01*
X98850000Y-103230000D02*
X99850000Y-103230000D01*
X99850000Y-101870000D02*
X98850000Y-101870000D01*
X98850000Y-104780000D02*
X99850000Y-104780000D01*
X99850000Y-103420000D02*
X98850000Y-103420000D01*
X98150000Y-93120000D02*
X97150000Y-93120000D01*
X97150000Y-94480000D02*
X98150000Y-94480000D01*
X117600000Y-115720000D02*
X116600000Y-115720000D01*
X116600000Y-117080000D02*
X117600000Y-117080000D01*
X113300000Y-115720000D02*
X112300000Y-115720000D01*
X112300000Y-117080000D02*
X113300000Y-117080000D01*
X82800000Y-111120000D02*
X81800000Y-111120000D01*
X81800000Y-112480000D02*
X82800000Y-112480000D01*
X98150000Y-110980000D02*
X99150000Y-110980000D01*
X99150000Y-109620000D02*
X98150000Y-109620000D01*
X94920000Y-110200000D02*
X94920000Y-111200000D01*
X96280000Y-111200000D02*
X96280000Y-110200000D01*
X92500000Y-115130000D02*
X93500000Y-115130000D01*
X93500000Y-113770000D02*
X92500000Y-113770000D01*
X86900000Y-109520000D02*
X85900000Y-109520000D01*
X85900000Y-110880000D02*
X86900000Y-110880000D01*
X88820000Y-110200000D02*
X88820000Y-111200000D01*
X90180000Y-111200000D02*
X90180000Y-110200000D01*
X98150000Y-109380000D02*
X99150000Y-109380000D01*
X99150000Y-108020000D02*
X98150000Y-108020000D01*
D10*
X117450000Y-99650000D02*
X117450000Y-95650000D01*
X115700000Y-101400000D02*
X111700000Y-101400000D01*
X109950000Y-99650000D02*
X109950000Y-95650000D01*
X115700000Y-93900000D02*
X111700000Y-93900000D01*
D13*
X117000000Y-102550000D02*
X117000000Y-102550000D01*
X116800000Y-102550000D02*
X116800000Y-102550000D01*
X116800000Y-102550000D02*
G75*
G02X117000000Y-102550000I100000J0D01*
G01*
X117000000Y-102550000D02*
G75*
G02X116800000Y-102550000I-100000J0D01*
G01*
D14*
X96400000Y-94650000D02*
X82489670Y-94650000D01*
X96400000Y-94650000D02*
X96400000Y-96321670D01*
X96400000Y-108500000D02*
X96400000Y-107065330D01*
X96400000Y-108500000D02*
X93187330Y-108500000D01*
X91038330Y-108500000D02*
X86718000Y-108500000D01*
X80400000Y-107458330D02*
X80400000Y-95906000D01*
X97715995Y-107273335D02*
G75*
G03X97715995Y-107273335I-115665J0D01*
G01*
D13*
X115850000Y-104550000D02*
X110950000Y-104550000D01*
X110950000Y-104550000D02*
X110950000Y-112850000D01*
X110950000Y-112850000D02*
X115850000Y-112850000D01*
X115850000Y-112850000D02*
X115850000Y-104550000D01*
X117725000Y-104550000D02*
X116200000Y-104550000D01*
X91300000Y-110050000D02*
X91300000Y-111250000D01*
X108350000Y-105625000D02*
X108350000Y-101775000D01*
X108350000Y-101775000D02*
X101850000Y-101775000D01*
X101850000Y-101775000D02*
X101850000Y-105625000D01*
X101850000Y-105625000D02*
X108350000Y-105625000D01*
X108225000Y-107725000D02*
X108225000Y-105975000D01*
X101650000Y-111050000D02*
X101650000Y-114250000D01*
X101650000Y-114250000D02*
X106550000Y-114250000D01*
X106550000Y-114250000D02*
X106550000Y-111050000D01*
X106550000Y-111050000D02*
X101650000Y-111050000D01*
X101495000Y-109175000D02*
X101495000Y-110700000D01*
D11*
X83316666Y-115457143D02*
X83364285Y-115504762D01*
X83507142Y-115552381D01*
X83602380Y-115552381D01*
X83745238Y-115504762D01*
X83840476Y-115409524D01*
X83888095Y-115314286D01*
X83935714Y-115123810D01*
X83935714Y-114980952D01*
X83888095Y-114790476D01*
X83840476Y-114695238D01*
X83745238Y-114600000D01*
X83602380Y-114552381D01*
X83507142Y-114552381D01*
X83364285Y-114600000D01*
X83316666Y-114647619D01*
X82983333Y-114552381D02*
X82364285Y-114552381D01*
X82697619Y-114933333D01*
X82554761Y-114933333D01*
X82459523Y-114980952D01*
X82411904Y-115028571D01*
X82364285Y-115123810D01*
X82364285Y-115361905D01*
X82411904Y-115457143D01*
X82459523Y-115504762D01*
X82554761Y-115552381D01*
X82840476Y-115552381D01*
X82935714Y-115504762D01*
X82983333Y-115457143D01*
X83316666Y-116807143D02*
X83364285Y-116854762D01*
X83507142Y-116902381D01*
X83602380Y-116902381D01*
X83745238Y-116854762D01*
X83840476Y-116759524D01*
X83888095Y-116664286D01*
X83935714Y-116473810D01*
X83935714Y-116330952D01*
X83888095Y-116140476D01*
X83840476Y-116045238D01*
X83745238Y-115950000D01*
X83602380Y-115902381D01*
X83507142Y-115902381D01*
X83364285Y-115950000D01*
X83316666Y-115997619D01*
X82411904Y-115902381D02*
X82888095Y-115902381D01*
X82935714Y-116378571D01*
X82888095Y-116330952D01*
X82792857Y-116283333D01*
X82554761Y-116283333D01*
X82459523Y-116330952D01*
X82411904Y-116378571D01*
X82364285Y-116473810D01*
X82364285Y-116711905D01*
X82411904Y-116807143D01*
X82459523Y-116854762D01*
X82554761Y-116902381D01*
X82792857Y-116902381D01*
X82888095Y-116854762D01*
X82935714Y-116807143D01*
X96016666Y-117307143D02*
X96064285Y-117354762D01*
X96207142Y-117402381D01*
X96302380Y-117402381D01*
X96445238Y-117354762D01*
X96540476Y-117259524D01*
X96588095Y-117164286D01*
X96635714Y-116973810D01*
X96635714Y-116830952D01*
X96588095Y-116640476D01*
X96540476Y-116545238D01*
X96445238Y-116450000D01*
X96302380Y-116402381D01*
X96207142Y-116402381D01*
X96064285Y-116450000D01*
X96016666Y-116497619D01*
X95159523Y-116402381D02*
X95350000Y-116402381D01*
X95445238Y-116450000D01*
X95492857Y-116497619D01*
X95588095Y-116640476D01*
X95635714Y-116830952D01*
X95635714Y-117211905D01*
X95588095Y-117307143D01*
X95540476Y-117354762D01*
X95445238Y-117402381D01*
X95254761Y-117402381D01*
X95159523Y-117354762D01*
X95111904Y-117307143D01*
X95064285Y-117211905D01*
X95064285Y-116973810D01*
X95111904Y-116878571D01*
X95159523Y-116830952D01*
X95254761Y-116783333D01*
X95445238Y-116783333D01*
X95540476Y-116830952D01*
X95588095Y-116878571D01*
X95635714Y-116973810D01*
X94416666Y-105707143D02*
X94464285Y-105754762D01*
X94607142Y-105802381D01*
X94702380Y-105802381D01*
X94845238Y-105754762D01*
X94940476Y-105659524D01*
X94988095Y-105564286D01*
X95035714Y-105373810D01*
X95035714Y-105230952D01*
X94988095Y-105040476D01*
X94940476Y-104945238D01*
X94845238Y-104850000D01*
X94702380Y-104802381D01*
X94607142Y-104802381D01*
X94464285Y-104850000D01*
X94416666Y-104897619D01*
X93845238Y-105230952D02*
X93940476Y-105183333D01*
X93988095Y-105135714D01*
X94035714Y-105040476D01*
X94035714Y-104992857D01*
X93988095Y-104897619D01*
X93940476Y-104850000D01*
X93845238Y-104802381D01*
X93654761Y-104802381D01*
X93559523Y-104850000D01*
X93511904Y-104897619D01*
X93464285Y-104992857D01*
X93464285Y-105040476D01*
X93511904Y-105135714D01*
X93559523Y-105183333D01*
X93654761Y-105230952D01*
X93845238Y-105230952D01*
X93940476Y-105278571D01*
X93988095Y-105326190D01*
X94035714Y-105421429D01*
X94035714Y-105611905D01*
X93988095Y-105707143D01*
X93940476Y-105754762D01*
X93845238Y-105802381D01*
X93654761Y-105802381D01*
X93559523Y-105754762D01*
X93511904Y-105707143D01*
X93464285Y-105611905D01*
X93464285Y-105421429D01*
X93511904Y-105326190D01*
X93559523Y-105278571D01*
X93654761Y-105230952D01*
X114092857Y-105707143D02*
X114140476Y-105754762D01*
X114283333Y-105802381D01*
X114378571Y-105802381D01*
X114521429Y-105754762D01*
X114616667Y-105659524D01*
X114664286Y-105564286D01*
X114711905Y-105373810D01*
X114711905Y-105230952D01*
X114664286Y-105040476D01*
X114616667Y-104945238D01*
X114521429Y-104850000D01*
X114378571Y-104802381D01*
X114283333Y-104802381D01*
X114140476Y-104850000D01*
X114092857Y-104897619D01*
X113140476Y-105802381D02*
X113711905Y-105802381D01*
X113426191Y-105802381D02*
X113426191Y-104802381D01*
X113521429Y-104945238D01*
X113616667Y-105040476D01*
X113711905Y-105088095D01*
X112759524Y-104897619D02*
X112711905Y-104850000D01*
X112616667Y-104802381D01*
X112378571Y-104802381D01*
X112283333Y-104850000D01*
X112235714Y-104897619D01*
X112188095Y-104992857D01*
X112188095Y-105088095D01*
X112235714Y-105230952D01*
X112807143Y-105802381D01*
X112188095Y-105802381D01*
X122242857Y-93857143D02*
X122290476Y-93904762D01*
X122433333Y-93952381D01*
X122528571Y-93952381D01*
X122671429Y-93904762D01*
X122766667Y-93809524D01*
X122814286Y-93714286D01*
X122861905Y-93523810D01*
X122861905Y-93380952D01*
X122814286Y-93190476D01*
X122766667Y-93095238D01*
X122671429Y-93000000D01*
X122528571Y-92952381D01*
X122433333Y-92952381D01*
X122290476Y-93000000D01*
X122242857Y-93047619D01*
X121290476Y-93952381D02*
X121861905Y-93952381D01*
X121576191Y-93952381D02*
X121576191Y-92952381D01*
X121671429Y-93095238D01*
X121766667Y-93190476D01*
X121861905Y-93238095D01*
X120957143Y-92952381D02*
X120338095Y-92952381D01*
X120671429Y-93333333D01*
X120528571Y-93333333D01*
X120433333Y-93380952D01*
X120385714Y-93428571D01*
X120338095Y-93523810D01*
X120338095Y-93761905D01*
X120385714Y-93857143D01*
X120433333Y-93904762D01*
X120528571Y-93952381D01*
X120814286Y-93952381D01*
X120909524Y-93904762D01*
X120957143Y-93857143D01*
X110442857Y-91257143D02*
X110490476Y-91304762D01*
X110633333Y-91352381D01*
X110728571Y-91352381D01*
X110871429Y-91304762D01*
X110966667Y-91209524D01*
X111014286Y-91114286D01*
X111061905Y-90923810D01*
X111061905Y-90780952D01*
X111014286Y-90590476D01*
X110966667Y-90495238D01*
X110871429Y-90400000D01*
X110728571Y-90352381D01*
X110633333Y-90352381D01*
X110490476Y-90400000D01*
X110442857Y-90447619D01*
X109490476Y-91352381D02*
X110061905Y-91352381D01*
X109776191Y-91352381D02*
X109776191Y-90352381D01*
X109871429Y-90495238D01*
X109966667Y-90590476D01*
X110061905Y-90638095D01*
X108633333Y-90685714D02*
X108633333Y-91352381D01*
X108871429Y-90304762D02*
X109109524Y-91019048D01*
X108490476Y-91019048D01*
X82992857Y-107157143D02*
X83040476Y-107204762D01*
X83183333Y-107252381D01*
X83278571Y-107252381D01*
X83421429Y-107204762D01*
X83516667Y-107109524D01*
X83564286Y-107014286D01*
X83611905Y-106823810D01*
X83611905Y-106680952D01*
X83564286Y-106490476D01*
X83516667Y-106395238D01*
X83421429Y-106300000D01*
X83278571Y-106252381D01*
X83183333Y-106252381D01*
X83040476Y-106300000D01*
X82992857Y-106347619D01*
X82040476Y-107252381D02*
X82611905Y-107252381D01*
X82326191Y-107252381D02*
X82326191Y-106252381D01*
X82421429Y-106395238D01*
X82516667Y-106490476D01*
X82611905Y-106538095D01*
X81135714Y-106252381D02*
X81611905Y-106252381D01*
X81659524Y-106728571D01*
X81611905Y-106680952D01*
X81516667Y-106633333D01*
X81278571Y-106633333D01*
X81183333Y-106680952D01*
X81135714Y-106728571D01*
X81088095Y-106823810D01*
X81088095Y-107061905D01*
X81135714Y-107157143D01*
X81183333Y-107204762D01*
X81278571Y-107252381D01*
X81516667Y-107252381D01*
X81611905Y-107204762D01*
X81659524Y-107157143D01*
X118157143Y-97257143D02*
X118204762Y-97209524D01*
X118252381Y-97066667D01*
X118252381Y-96971429D01*
X118204762Y-96828571D01*
X118109524Y-96733333D01*
X118014286Y-96685714D01*
X117823810Y-96638095D01*
X117680952Y-96638095D01*
X117490476Y-96685714D01*
X117395238Y-96733333D01*
X117300000Y-96828571D01*
X117252381Y-96971429D01*
X117252381Y-97066667D01*
X117300000Y-97209524D01*
X117347619Y-97257143D01*
X118252381Y-98209524D02*
X118252381Y-97638095D01*
X118252381Y-97923809D02*
X117252381Y-97923809D01*
X117395238Y-97828571D01*
X117490476Y-97733333D01*
X117538095Y-97638095D01*
X117252381Y-99066667D02*
X117252381Y-98876190D01*
X117300000Y-98780952D01*
X117347619Y-98733333D01*
X117490476Y-98638095D01*
X117680952Y-98590476D01*
X118061905Y-98590476D01*
X118157143Y-98638095D01*
X118204762Y-98685714D01*
X118252381Y-98780952D01*
X118252381Y-98971429D01*
X118204762Y-99066667D01*
X118157143Y-99114286D01*
X118061905Y-99161905D01*
X117823810Y-99161905D01*
X117728571Y-99114286D01*
X117680952Y-99066667D01*
X117633333Y-98971429D01*
X117633333Y-98780952D01*
X117680952Y-98685714D01*
X117728571Y-98638095D01*
X117823810Y-98590476D01*
X110442857Y-92557143D02*
X110490476Y-92604762D01*
X110633333Y-92652381D01*
X110728571Y-92652381D01*
X110871429Y-92604762D01*
X110966667Y-92509524D01*
X111014286Y-92414286D01*
X111061905Y-92223810D01*
X111061905Y-92080952D01*
X111014286Y-91890476D01*
X110966667Y-91795238D01*
X110871429Y-91700000D01*
X110728571Y-91652381D01*
X110633333Y-91652381D01*
X110490476Y-91700000D01*
X110442857Y-91747619D01*
X109490476Y-92652381D02*
X110061905Y-92652381D01*
X109776191Y-92652381D02*
X109776191Y-91652381D01*
X109871429Y-91795238D01*
X109966667Y-91890476D01*
X110061905Y-91938095D01*
X109157143Y-91652381D02*
X108490476Y-91652381D01*
X108919048Y-92652381D01*
X124092857Y-110457143D02*
X124140476Y-110504762D01*
X124283333Y-110552381D01*
X124378571Y-110552381D01*
X124521429Y-110504762D01*
X124616667Y-110409524D01*
X124664286Y-110314286D01*
X124711905Y-110123810D01*
X124711905Y-109980952D01*
X124664286Y-109790476D01*
X124616667Y-109695238D01*
X124521429Y-109600000D01*
X124378571Y-109552381D01*
X124283333Y-109552381D01*
X124140476Y-109600000D01*
X124092857Y-109647619D01*
X123140476Y-110552381D02*
X123711905Y-110552381D01*
X123426191Y-110552381D02*
X123426191Y-109552381D01*
X123521429Y-109695238D01*
X123616667Y-109790476D01*
X123711905Y-109838095D01*
X122569048Y-109980952D02*
X122664286Y-109933333D01*
X122711905Y-109885714D01*
X122759524Y-109790476D01*
X122759524Y-109742857D01*
X122711905Y-109647619D01*
X122664286Y-109600000D01*
X122569048Y-109552381D01*
X122378571Y-109552381D01*
X122283333Y-109600000D01*
X122235714Y-109647619D01*
X122188095Y-109742857D01*
X122188095Y-109790476D01*
X122235714Y-109885714D01*
X122283333Y-109933333D01*
X122378571Y-109980952D01*
X122569048Y-109980952D01*
X122664286Y-110028571D01*
X122711905Y-110076190D01*
X122759524Y-110171429D01*
X122759524Y-110361905D01*
X122711905Y-110457143D01*
X122664286Y-110504762D01*
X122569048Y-110552381D01*
X122378571Y-110552381D01*
X122283333Y-110504762D01*
X122235714Y-110457143D01*
X122188095Y-110361905D01*
X122188095Y-110171429D01*
X122235714Y-110076190D01*
X122283333Y-110028571D01*
X122378571Y-109980952D01*
X121457143Y-110207143D02*
X121504762Y-110159524D01*
X121552381Y-110016667D01*
X121552381Y-109921429D01*
X121504762Y-109778571D01*
X121409524Y-109683333D01*
X121314286Y-109635714D01*
X121123810Y-109588095D01*
X120980952Y-109588095D01*
X120790476Y-109635714D01*
X120695238Y-109683333D01*
X120600000Y-109778571D01*
X120552381Y-109921429D01*
X120552381Y-110016667D01*
X120600000Y-110159524D01*
X120647619Y-110207143D01*
X121552381Y-111159524D02*
X121552381Y-110588095D01*
X121552381Y-110873809D02*
X120552381Y-110873809D01*
X120695238Y-110778571D01*
X120790476Y-110683333D01*
X120838095Y-110588095D01*
X121552381Y-111635714D02*
X121552381Y-111826190D01*
X121504762Y-111921429D01*
X121457143Y-111969048D01*
X121314286Y-112064286D01*
X121123810Y-112111905D01*
X120742857Y-112111905D01*
X120647619Y-112064286D01*
X120600000Y-112016667D01*
X120552381Y-111921429D01*
X120552381Y-111730952D01*
X120600000Y-111635714D01*
X120647619Y-111588095D01*
X120742857Y-111540476D01*
X120980952Y-111540476D01*
X121076190Y-111588095D01*
X121123810Y-111635714D01*
X121171429Y-111730952D01*
X121171429Y-111921429D01*
X121123810Y-112016667D01*
X121076190Y-112064286D01*
X120980952Y-112111905D01*
X116857143Y-97257143D02*
X116904762Y-97209524D01*
X116952381Y-97066667D01*
X116952381Y-96971429D01*
X116904762Y-96828571D01*
X116809524Y-96733333D01*
X116714286Y-96685714D01*
X116523810Y-96638095D01*
X116380952Y-96638095D01*
X116190476Y-96685714D01*
X116095238Y-96733333D01*
X116000000Y-96828571D01*
X115952381Y-96971429D01*
X115952381Y-97066667D01*
X116000000Y-97209524D01*
X116047619Y-97257143D01*
X116047619Y-97638095D02*
X116000000Y-97685714D01*
X115952381Y-97780952D01*
X115952381Y-98019048D01*
X116000000Y-98114286D01*
X116047619Y-98161905D01*
X116142857Y-98209524D01*
X116238095Y-98209524D01*
X116380952Y-98161905D01*
X116952381Y-97590476D01*
X116952381Y-98209524D01*
X115952381Y-98828571D02*
X115952381Y-98923810D01*
X116000000Y-99019048D01*
X116047619Y-99066667D01*
X116142857Y-99114286D01*
X116333333Y-99161905D01*
X116571429Y-99161905D01*
X116761905Y-99114286D01*
X116857143Y-99066667D01*
X116904762Y-99019048D01*
X116952381Y-98923810D01*
X116952381Y-98828571D01*
X116904762Y-98733333D01*
X116857143Y-98685714D01*
X116761905Y-98638095D01*
X116571429Y-98590476D01*
X116333333Y-98590476D01*
X116142857Y-98638095D01*
X116047619Y-98685714D01*
X116000000Y-98733333D01*
X115952381Y-98828571D01*
X115652381Y-97161905D02*
X114652381Y-97161905D01*
X114652381Y-97400000D01*
X114700000Y-97542858D01*
X114795238Y-97638096D01*
X114890476Y-97685715D01*
X115080952Y-97733334D01*
X115223810Y-97733334D01*
X115414286Y-97685715D01*
X115509524Y-97638096D01*
X115604762Y-97542858D01*
X115652381Y-97400000D01*
X115652381Y-97161905D01*
X115652381Y-98685715D02*
X115652381Y-98114286D01*
X115652381Y-98400000D02*
X114652381Y-98400000D01*
X114795238Y-98304762D01*
X114890476Y-98209524D01*
X114938095Y-98114286D01*
X119552381Y-104461905D02*
X118552381Y-104461905D01*
X118552381Y-104700000D01*
X118600000Y-104842858D01*
X118695238Y-104938096D01*
X118790476Y-104985715D01*
X118980952Y-105033334D01*
X119123810Y-105033334D01*
X119314286Y-104985715D01*
X119409524Y-104938096D01*
X119504762Y-104842858D01*
X119552381Y-104700000D01*
X119552381Y-104461905D01*
X118552381Y-105890477D02*
X118552381Y-105700000D01*
X118600000Y-105604762D01*
X118647619Y-105557143D01*
X118790476Y-105461905D01*
X118980952Y-105414286D01*
X119361905Y-105414286D01*
X119457143Y-105461905D01*
X119504762Y-105509524D01*
X119552381Y-105604762D01*
X119552381Y-105795239D01*
X119504762Y-105890477D01*
X119457143Y-105938096D01*
X119361905Y-105985715D01*
X119123810Y-105985715D01*
X119028571Y-105938096D01*
X118980952Y-105890477D01*
X118933333Y-105795239D01*
X118933333Y-105604762D01*
X118980952Y-105509524D01*
X119028571Y-105461905D01*
X119123810Y-105414286D01*
X112938095Y-91352381D02*
X112938095Y-90352381D01*
X112700000Y-90352381D01*
X112557142Y-90400000D01*
X112461904Y-90495238D01*
X112414285Y-90590476D01*
X112366666Y-90780952D01*
X112366666Y-90923810D01*
X112414285Y-91114286D01*
X112461904Y-91209524D01*
X112557142Y-91304762D01*
X112700000Y-91352381D01*
X112938095Y-91352381D01*
X112033333Y-90352381D02*
X111366666Y-90352381D01*
X111795238Y-91352381D01*
X112938095Y-92652381D02*
X112938095Y-91652381D01*
X112700000Y-91652381D01*
X112557142Y-91700000D01*
X112461904Y-91795238D01*
X112414285Y-91890476D01*
X112366666Y-92080952D01*
X112366666Y-92223810D01*
X112414285Y-92414286D01*
X112461904Y-92509524D01*
X112557142Y-92604762D01*
X112700000Y-92652381D01*
X112938095Y-92652381D01*
X111795238Y-92080952D02*
X111890476Y-92033333D01*
X111938095Y-91985714D01*
X111985714Y-91890476D01*
X111985714Y-91842857D01*
X111938095Y-91747619D01*
X111890476Y-91700000D01*
X111795238Y-91652381D01*
X111604761Y-91652381D01*
X111509523Y-91700000D01*
X111461904Y-91747619D01*
X111414285Y-91842857D01*
X111414285Y-91890476D01*
X111461904Y-91985714D01*
X111509523Y-92033333D01*
X111604761Y-92080952D01*
X111795238Y-92080952D01*
X111890476Y-92128571D01*
X111938095Y-92176190D01*
X111985714Y-92271429D01*
X111985714Y-92461905D01*
X111938095Y-92557143D01*
X111890476Y-92604762D01*
X111795238Y-92652381D01*
X111604761Y-92652381D01*
X111509523Y-92604762D01*
X111461904Y-92557143D01*
X111414285Y-92461905D01*
X111414285Y-92271429D01*
X111461904Y-92176190D01*
X111509523Y-92128571D01*
X111604761Y-92080952D01*
X115302381Y-110611905D02*
X114302381Y-110611905D01*
X114302381Y-110850000D01*
X114350000Y-110992858D01*
X114445238Y-111088096D01*
X114540476Y-111135715D01*
X114730952Y-111183334D01*
X114873810Y-111183334D01*
X115064286Y-111135715D01*
X115159524Y-111088096D01*
X115254762Y-110992858D01*
X115302381Y-110850000D01*
X115302381Y-110611905D01*
X115302381Y-111659524D02*
X115302381Y-111850000D01*
X115254762Y-111945239D01*
X115207143Y-111992858D01*
X115064286Y-112088096D01*
X114873810Y-112135715D01*
X114492857Y-112135715D01*
X114397619Y-112088096D01*
X114350000Y-112040477D01*
X114302381Y-111945239D01*
X114302381Y-111754762D01*
X114350000Y-111659524D01*
X114397619Y-111611905D01*
X114492857Y-111564286D01*
X114730952Y-111564286D01*
X114826190Y-111611905D01*
X114873810Y-111659524D01*
X114921429Y-111754762D01*
X114921429Y-111945239D01*
X114873810Y-112040477D01*
X114826190Y-112088096D01*
X114730952Y-112135715D01*
X99864286Y-116752381D02*
X99864286Y-115752381D01*
X99626191Y-115752381D01*
X99483333Y-115800000D01*
X99388095Y-115895238D01*
X99340476Y-115990476D01*
X99292857Y-116180952D01*
X99292857Y-116323810D01*
X99340476Y-116514286D01*
X99388095Y-116609524D01*
X99483333Y-116704762D01*
X99626191Y-116752381D01*
X99864286Y-116752381D01*
X98340476Y-116752381D02*
X98911905Y-116752381D01*
X98626191Y-116752381D02*
X98626191Y-115752381D01*
X98721429Y-115895238D01*
X98816667Y-115990476D01*
X98911905Y-116038095D01*
X97388095Y-116752381D02*
X97959524Y-116752381D01*
X97673810Y-116752381D02*
X97673810Y-115752381D01*
X97769048Y-115895238D01*
X97864286Y-115990476D01*
X97959524Y-116038095D01*
X87614286Y-107252381D02*
X87614286Y-106252381D01*
X87376191Y-106252381D01*
X87233333Y-106300000D01*
X87138095Y-106395238D01*
X87090476Y-106490476D01*
X87042857Y-106680952D01*
X87042857Y-106823810D01*
X87090476Y-107014286D01*
X87138095Y-107109524D01*
X87233333Y-107204762D01*
X87376191Y-107252381D01*
X87614286Y-107252381D01*
X86090476Y-107252381D02*
X86661905Y-107252381D01*
X86376191Y-107252381D02*
X86376191Y-106252381D01*
X86471429Y-106395238D01*
X86566667Y-106490476D01*
X86661905Y-106538095D01*
X85757143Y-106252381D02*
X85138095Y-106252381D01*
X85471429Y-106633333D01*
X85328571Y-106633333D01*
X85233333Y-106680952D01*
X85185714Y-106728571D01*
X85138095Y-106823810D01*
X85138095Y-107061905D01*
X85185714Y-107157143D01*
X85233333Y-107204762D01*
X85328571Y-107252381D01*
X85614286Y-107252381D01*
X85709524Y-107204762D01*
X85757143Y-107157143D01*
X115352381Y-94161905D02*
X114352381Y-94161905D01*
X114352381Y-94542858D01*
X114400000Y-94638096D01*
X114447619Y-94685715D01*
X114542857Y-94733334D01*
X114685714Y-94733334D01*
X114780952Y-94685715D01*
X114828571Y-94638096D01*
X114876190Y-94542858D01*
X114876190Y-94161905D01*
X114352381Y-95066667D02*
X114352381Y-95733334D01*
X115352381Y-95304762D01*
D14*
X105240711Y-93410524D02*
X105240711Y-92140524D01*
X104756902Y-92140524D01*
X104635949Y-92201000D01*
X104575473Y-92261476D01*
X104514997Y-92382429D01*
X104514997Y-92563857D01*
X104575473Y-92684810D01*
X104635949Y-92745286D01*
X104756902Y-92805762D01*
X105240711Y-92805762D01*
X103789282Y-92684810D02*
X103910235Y-92624333D01*
X103970711Y-92563857D01*
X104031187Y-92442905D01*
X104031187Y-92382429D01*
X103970711Y-92261476D01*
X103910235Y-92201000D01*
X103789282Y-92140524D01*
X103547378Y-92140524D01*
X103426425Y-92201000D01*
X103365949Y-92261476D01*
X103305473Y-92382429D01*
X103305473Y-92442905D01*
X103365949Y-92563857D01*
X103426425Y-92624333D01*
X103547378Y-92684810D01*
X103789282Y-92684810D01*
X103910235Y-92745286D01*
X103970711Y-92805762D01*
X104031187Y-92926714D01*
X104031187Y-93168619D01*
X103970711Y-93289571D01*
X103910235Y-93350048D01*
X103789282Y-93410524D01*
X103547378Y-93410524D01*
X103426425Y-93350048D01*
X103365949Y-93289571D01*
X103305473Y-93168619D01*
X103305473Y-92926714D01*
X103365949Y-92805762D01*
X103426425Y-92745286D01*
X103547378Y-92684810D01*
X108545476Y-113679048D02*
X108485000Y-113558095D01*
X108364048Y-113437143D01*
X108182619Y-113255714D01*
X108122143Y-113134762D01*
X108122143Y-113013810D01*
X108424524Y-113074286D02*
X108364048Y-112953333D01*
X108243095Y-112832381D01*
X108001190Y-112771905D01*
X107577857Y-112771905D01*
X107335952Y-112832381D01*
X107215000Y-112953333D01*
X107154524Y-113074286D01*
X107154524Y-113316190D01*
X107215000Y-113437143D01*
X107335952Y-113558095D01*
X107577857Y-113618571D01*
X108001190Y-113618571D01*
X108243095Y-113558095D01*
X108364048Y-113437143D01*
X108424524Y-113316190D01*
X108424524Y-113074286D01*
X108424524Y-114828095D02*
X108424524Y-114102381D01*
X108424524Y-114465238D02*
X107154524Y-114465238D01*
X107335952Y-114344286D01*
X107456905Y-114223333D01*
X107517381Y-114102381D01*
D11*
X104966666Y-117902381D02*
X105300000Y-117426190D01*
X105538095Y-117902381D02*
X105538095Y-116902381D01*
X105157142Y-116902381D01*
X105061904Y-116950000D01*
X105014285Y-116997619D01*
X104966666Y-117092857D01*
X104966666Y-117235714D01*
X105014285Y-117330952D01*
X105061904Y-117378571D01*
X105157142Y-117426190D01*
X105538095Y-117426190D01*
X104014285Y-117902381D02*
X104585714Y-117902381D01*
X104300000Y-117902381D02*
X104300000Y-116902381D01*
X104395238Y-117045238D01*
X104490476Y-117140476D01*
X104585714Y-117188095D01*
X88816666Y-94202381D02*
X89150000Y-93726190D01*
X89388095Y-94202381D02*
X89388095Y-93202381D01*
X89007142Y-93202381D01*
X88911904Y-93250000D01*
X88864285Y-93297619D01*
X88816666Y-93392857D01*
X88816666Y-93535714D01*
X88864285Y-93630952D01*
X88911904Y-93678571D01*
X89007142Y-93726190D01*
X89388095Y-93726190D01*
X88435714Y-93297619D02*
X88388095Y-93250000D01*
X88292857Y-93202381D01*
X88054761Y-93202381D01*
X87959523Y-93250000D01*
X87911904Y-93297619D01*
X87864285Y-93392857D01*
X87864285Y-93488095D01*
X87911904Y-93630952D01*
X88483333Y-94202381D01*
X87864285Y-94202381D01*
X94416666Y-99802381D02*
X94750000Y-99326190D01*
X94988095Y-99802381D02*
X94988095Y-98802381D01*
X94607142Y-98802381D01*
X94511904Y-98850000D01*
X94464285Y-98897619D01*
X94416666Y-98992857D01*
X94416666Y-99135714D01*
X94464285Y-99230952D01*
X94511904Y-99278571D01*
X94607142Y-99326190D01*
X94988095Y-99326190D01*
X93511904Y-98802381D02*
X93988095Y-98802381D01*
X94035714Y-99278571D01*
X93988095Y-99230952D01*
X93892857Y-99183333D01*
X93654761Y-99183333D01*
X93559523Y-99230952D01*
X93511904Y-99278571D01*
X93464285Y-99373810D01*
X93464285Y-99611905D01*
X93511904Y-99707143D01*
X93559523Y-99754762D01*
X93654761Y-99802381D01*
X93892857Y-99802381D01*
X93988095Y-99754762D01*
X94035714Y-99707143D01*
X94416666Y-101252381D02*
X94750000Y-100776190D01*
X94988095Y-101252381D02*
X94988095Y-100252381D01*
X94607142Y-100252381D01*
X94511904Y-100300000D01*
X94464285Y-100347619D01*
X94416666Y-100442857D01*
X94416666Y-100585714D01*
X94464285Y-100680952D01*
X94511904Y-100728571D01*
X94607142Y-100776190D01*
X94988095Y-100776190D01*
X93559523Y-100252381D02*
X93750000Y-100252381D01*
X93845238Y-100300000D01*
X93892857Y-100347619D01*
X93988095Y-100490476D01*
X94035714Y-100680952D01*
X94035714Y-101061905D01*
X93988095Y-101157143D01*
X93940476Y-101204762D01*
X93845238Y-101252381D01*
X93654761Y-101252381D01*
X93559523Y-101204762D01*
X93511904Y-101157143D01*
X93464285Y-101061905D01*
X93464285Y-100823810D01*
X93511904Y-100728571D01*
X93559523Y-100680952D01*
X93654761Y-100633333D01*
X93845238Y-100633333D01*
X93940476Y-100680952D01*
X93988095Y-100728571D01*
X94035714Y-100823810D01*
X94416666Y-102702381D02*
X94750000Y-102226190D01*
X94988095Y-102702381D02*
X94988095Y-101702381D01*
X94607142Y-101702381D01*
X94511904Y-101750000D01*
X94464285Y-101797619D01*
X94416666Y-101892857D01*
X94416666Y-102035714D01*
X94464285Y-102130952D01*
X94511904Y-102178571D01*
X94607142Y-102226190D01*
X94988095Y-102226190D01*
X94083333Y-101702381D02*
X93416666Y-101702381D01*
X93845238Y-102702381D01*
X94416666Y-104102381D02*
X94750000Y-103626190D01*
X94988095Y-104102381D02*
X94988095Y-103102381D01*
X94607142Y-103102381D01*
X94511904Y-103150000D01*
X94464285Y-103197619D01*
X94416666Y-103292857D01*
X94416666Y-103435714D01*
X94464285Y-103530952D01*
X94511904Y-103578571D01*
X94607142Y-103626190D01*
X94988095Y-103626190D01*
X93845238Y-103530952D02*
X93940476Y-103483333D01*
X93988095Y-103435714D01*
X94035714Y-103340476D01*
X94035714Y-103292857D01*
X93988095Y-103197619D01*
X93940476Y-103150000D01*
X93845238Y-103102381D01*
X93654761Y-103102381D01*
X93559523Y-103150000D01*
X93511904Y-103197619D01*
X93464285Y-103292857D01*
X93464285Y-103340476D01*
X93511904Y-103435714D01*
X93559523Y-103483333D01*
X93654761Y-103530952D01*
X93845238Y-103530952D01*
X93940476Y-103578571D01*
X93988095Y-103626190D01*
X94035714Y-103721429D01*
X94035714Y-103911905D01*
X93988095Y-104007143D01*
X93940476Y-104054762D01*
X93845238Y-104102381D01*
X93654761Y-104102381D01*
X93559523Y-104054762D01*
X93511904Y-104007143D01*
X93464285Y-103911905D01*
X93464285Y-103721429D01*
X93511904Y-103626190D01*
X93559523Y-103578571D01*
X93654761Y-103530952D01*
X99092857Y-95802381D02*
X99426191Y-95326190D01*
X99664286Y-95802381D02*
X99664286Y-94802381D01*
X99283333Y-94802381D01*
X99188095Y-94850000D01*
X99140476Y-94897619D01*
X99092857Y-94992857D01*
X99092857Y-95135714D01*
X99140476Y-95230952D01*
X99188095Y-95278571D01*
X99283333Y-95326190D01*
X99664286Y-95326190D01*
X98140476Y-95802381D02*
X98711905Y-95802381D01*
X98426191Y-95802381D02*
X98426191Y-94802381D01*
X98521429Y-94945238D01*
X98616667Y-95040476D01*
X98711905Y-95088095D01*
X97283333Y-95135714D02*
X97283333Y-95802381D01*
X97521429Y-94754762D02*
X97759524Y-95469048D01*
X97140476Y-95469048D01*
X121342857Y-116402381D02*
X121676191Y-115926190D01*
X121914286Y-116402381D02*
X121914286Y-115402381D01*
X121533333Y-115402381D01*
X121438095Y-115450000D01*
X121390476Y-115497619D01*
X121342857Y-115592857D01*
X121342857Y-115735714D01*
X121390476Y-115830952D01*
X121438095Y-115878571D01*
X121533333Y-115926190D01*
X121914286Y-115926190D01*
X120961905Y-115497619D02*
X120914286Y-115450000D01*
X120819048Y-115402381D01*
X120580952Y-115402381D01*
X120485714Y-115450000D01*
X120438095Y-115497619D01*
X120390476Y-115592857D01*
X120390476Y-115688095D01*
X120438095Y-115830952D01*
X121009524Y-116402381D01*
X120390476Y-116402381D01*
X119771429Y-115402381D02*
X119676190Y-115402381D01*
X119580952Y-115450000D01*
X119533333Y-115497619D01*
X119485714Y-115592857D01*
X119438095Y-115783333D01*
X119438095Y-116021429D01*
X119485714Y-116211905D01*
X119533333Y-116307143D01*
X119580952Y-116354762D01*
X119676190Y-116402381D01*
X119771429Y-116402381D01*
X119866667Y-116354762D01*
X119914286Y-116307143D01*
X119961905Y-116211905D01*
X120009524Y-116021429D01*
X120009524Y-115783333D01*
X119961905Y-115592857D01*
X119914286Y-115497619D01*
X119866667Y-115450000D01*
X119771429Y-115402381D01*
X121292857Y-117702381D02*
X121626191Y-117226190D01*
X121864286Y-117702381D02*
X121864286Y-116702381D01*
X121483333Y-116702381D01*
X121388095Y-116750000D01*
X121340476Y-116797619D01*
X121292857Y-116892857D01*
X121292857Y-117035714D01*
X121340476Y-117130952D01*
X121388095Y-117178571D01*
X121483333Y-117226190D01*
X121864286Y-117226190D01*
X120911905Y-116797619D02*
X120864286Y-116750000D01*
X120769048Y-116702381D01*
X120530952Y-116702381D01*
X120435714Y-116750000D01*
X120388095Y-116797619D01*
X120340476Y-116892857D01*
X120340476Y-116988095D01*
X120388095Y-117130952D01*
X120959524Y-117702381D01*
X120340476Y-117702381D01*
X119388095Y-117702381D02*
X119959524Y-117702381D01*
X119673810Y-117702381D02*
X119673810Y-116702381D01*
X119769048Y-116845238D01*
X119864286Y-116940476D01*
X119959524Y-116988095D01*
X82942857Y-113702381D02*
X83276191Y-113226190D01*
X83514286Y-113702381D02*
X83514286Y-112702381D01*
X83133333Y-112702381D01*
X83038095Y-112750000D01*
X82990476Y-112797619D01*
X82942857Y-112892857D01*
X82942857Y-113035714D01*
X82990476Y-113130952D01*
X83038095Y-113178571D01*
X83133333Y-113226190D01*
X83514286Y-113226190D01*
X82561905Y-112797619D02*
X82514286Y-112750000D01*
X82419048Y-112702381D01*
X82180952Y-112702381D01*
X82085714Y-112750000D01*
X82038095Y-112797619D01*
X81990476Y-112892857D01*
X81990476Y-112988095D01*
X82038095Y-113130952D01*
X82609524Y-113702381D01*
X81990476Y-113702381D01*
X81609524Y-112797619D02*
X81561905Y-112750000D01*
X81466667Y-112702381D01*
X81228571Y-112702381D01*
X81133333Y-112750000D01*
X81085714Y-112797619D01*
X81038095Y-112892857D01*
X81038095Y-112988095D01*
X81085714Y-113130952D01*
X81657143Y-113702381D01*
X81038095Y-113702381D01*
X99342857Y-115452381D02*
X99676191Y-114976190D01*
X99914286Y-115452381D02*
X99914286Y-114452381D01*
X99533333Y-114452381D01*
X99438095Y-114500000D01*
X99390476Y-114547619D01*
X99342857Y-114642857D01*
X99342857Y-114785714D01*
X99390476Y-114880952D01*
X99438095Y-114928571D01*
X99533333Y-114976190D01*
X99914286Y-114976190D01*
X98961905Y-114547619D02*
X98914286Y-114500000D01*
X98819048Y-114452381D01*
X98580952Y-114452381D01*
X98485714Y-114500000D01*
X98438095Y-114547619D01*
X98390476Y-114642857D01*
X98390476Y-114738095D01*
X98438095Y-114880952D01*
X99009524Y-115452381D01*
X98390476Y-115452381D01*
X97533333Y-114785714D02*
X97533333Y-115452381D01*
X97771429Y-114404762D02*
X98009524Y-115119048D01*
X97390476Y-115119048D01*
X96202381Y-113607143D02*
X95726190Y-113273809D01*
X96202381Y-113035714D02*
X95202381Y-113035714D01*
X95202381Y-113416667D01*
X95250000Y-113511905D01*
X95297619Y-113559524D01*
X95392857Y-113607143D01*
X95535714Y-113607143D01*
X95630952Y-113559524D01*
X95678571Y-113511905D01*
X95726190Y-113416667D01*
X95726190Y-113035714D01*
X95297619Y-113988095D02*
X95250000Y-114035714D01*
X95202381Y-114130952D01*
X95202381Y-114369048D01*
X95250000Y-114464286D01*
X95297619Y-114511905D01*
X95392857Y-114559524D01*
X95488095Y-114559524D01*
X95630952Y-114511905D01*
X96202381Y-113940476D01*
X96202381Y-114559524D01*
X95202381Y-115464286D02*
X95202381Y-114988095D01*
X95678571Y-114940476D01*
X95630952Y-114988095D01*
X95583333Y-115083333D01*
X95583333Y-115321429D01*
X95630952Y-115416667D01*
X95678571Y-115464286D01*
X95773810Y-115511905D01*
X96011905Y-115511905D01*
X96107143Y-115464286D01*
X96154762Y-115416667D01*
X96202381Y-115321429D01*
X96202381Y-115083333D01*
X96154762Y-114988095D01*
X96107143Y-114940476D01*
X93592857Y-116352381D02*
X93926191Y-115876190D01*
X94164286Y-116352381D02*
X94164286Y-115352381D01*
X93783333Y-115352381D01*
X93688095Y-115400000D01*
X93640476Y-115447619D01*
X93592857Y-115542857D01*
X93592857Y-115685714D01*
X93640476Y-115780952D01*
X93688095Y-115828571D01*
X93783333Y-115876190D01*
X94164286Y-115876190D01*
X93211905Y-115447619D02*
X93164286Y-115400000D01*
X93069048Y-115352381D01*
X92830952Y-115352381D01*
X92735714Y-115400000D01*
X92688095Y-115447619D01*
X92640476Y-115542857D01*
X92640476Y-115638095D01*
X92688095Y-115780952D01*
X93259524Y-116352381D01*
X92640476Y-116352381D01*
X91783333Y-115352381D02*
X91973810Y-115352381D01*
X92069048Y-115400000D01*
X92116667Y-115447619D01*
X92211905Y-115590476D01*
X92259524Y-115780952D01*
X92259524Y-116161905D01*
X92211905Y-116257143D01*
X92164286Y-116304762D01*
X92069048Y-116352381D01*
X91878571Y-116352381D01*
X91783333Y-116304762D01*
X91735714Y-116257143D01*
X91688095Y-116161905D01*
X91688095Y-115923810D01*
X91735714Y-115828571D01*
X91783333Y-115780952D01*
X91878571Y-115733333D01*
X92069048Y-115733333D01*
X92164286Y-115780952D01*
X92211905Y-115828571D01*
X92259524Y-115923810D01*
X87042857Y-105852381D02*
X87376191Y-105376190D01*
X87614286Y-105852381D02*
X87614286Y-104852381D01*
X87233333Y-104852381D01*
X87138095Y-104900000D01*
X87090476Y-104947619D01*
X87042857Y-105042857D01*
X87042857Y-105185714D01*
X87090476Y-105280952D01*
X87138095Y-105328571D01*
X87233333Y-105376190D01*
X87614286Y-105376190D01*
X86661905Y-104947619D02*
X86614286Y-104900000D01*
X86519048Y-104852381D01*
X86280952Y-104852381D01*
X86185714Y-104900000D01*
X86138095Y-104947619D01*
X86090476Y-105042857D01*
X86090476Y-105138095D01*
X86138095Y-105280952D01*
X86709524Y-105852381D01*
X86090476Y-105852381D01*
X85757143Y-104852381D02*
X85090476Y-104852381D01*
X85519048Y-105852381D01*
X90052381Y-105557143D02*
X89576190Y-105223809D01*
X90052381Y-104985714D02*
X89052381Y-104985714D01*
X89052381Y-105366667D01*
X89100000Y-105461905D01*
X89147619Y-105509524D01*
X89242857Y-105557143D01*
X89385714Y-105557143D01*
X89480952Y-105509524D01*
X89528571Y-105461905D01*
X89576190Y-105366667D01*
X89576190Y-104985714D01*
X89147619Y-105938095D02*
X89100000Y-105985714D01*
X89052381Y-106080952D01*
X89052381Y-106319048D01*
X89100000Y-106414286D01*
X89147619Y-106461905D01*
X89242857Y-106509524D01*
X89338095Y-106509524D01*
X89480952Y-106461905D01*
X90052381Y-105890476D01*
X90052381Y-106509524D01*
X89480952Y-107080952D02*
X89433333Y-106985714D01*
X89385714Y-106938095D01*
X89290476Y-106890476D01*
X89242857Y-106890476D01*
X89147619Y-106938095D01*
X89100000Y-106985714D01*
X89052381Y-107080952D01*
X89052381Y-107271429D01*
X89100000Y-107366667D01*
X89147619Y-107414286D01*
X89242857Y-107461905D01*
X89290476Y-107461905D01*
X89385714Y-107414286D01*
X89433333Y-107366667D01*
X89480952Y-107271429D01*
X89480952Y-107080952D01*
X89528571Y-106985714D01*
X89576190Y-106938095D01*
X89671429Y-106890476D01*
X89861905Y-106890476D01*
X89957143Y-106938095D01*
X90004762Y-106985714D01*
X90052381Y-107080952D01*
X90052381Y-107271429D01*
X90004762Y-107366667D01*
X89957143Y-107414286D01*
X89861905Y-107461905D01*
X89671429Y-107461905D01*
X89576190Y-107414286D01*
X89528571Y-107366667D01*
X89480952Y-107271429D01*
X99342857Y-114152381D02*
X99676191Y-113676190D01*
X99914286Y-114152381D02*
X99914286Y-113152381D01*
X99533333Y-113152381D01*
X99438095Y-113200000D01*
X99390476Y-113247619D01*
X99342857Y-113342857D01*
X99342857Y-113485714D01*
X99390476Y-113580952D01*
X99438095Y-113628571D01*
X99533333Y-113676190D01*
X99914286Y-113676190D01*
X98961905Y-113247619D02*
X98914286Y-113200000D01*
X98819048Y-113152381D01*
X98580952Y-113152381D01*
X98485714Y-113200000D01*
X98438095Y-113247619D01*
X98390476Y-113342857D01*
X98390476Y-113438095D01*
X98438095Y-113580952D01*
X99009524Y-114152381D01*
X98390476Y-114152381D01*
X97914286Y-114152381D02*
X97723810Y-114152381D01*
X97628571Y-114104762D01*
X97580952Y-114057143D01*
X97485714Y-113914286D01*
X97438095Y-113723810D01*
X97438095Y-113342857D01*
X97485714Y-113247619D01*
X97533333Y-113200000D01*
X97628571Y-113152381D01*
X97819048Y-113152381D01*
X97914286Y-113200000D01*
X97961905Y-113247619D01*
X98009524Y-113342857D01*
X98009524Y-113580952D01*
X97961905Y-113676190D01*
X97914286Y-113723810D01*
X97819048Y-113771429D01*
X97628571Y-113771429D01*
X97533333Y-113723810D01*
X97485714Y-113676190D01*
X97438095Y-113580952D01*
D14*
X114214048Y-96347381D02*
X114274524Y-96528809D01*
X114274524Y-96831190D01*
X114214048Y-96952143D01*
X114153571Y-97012619D01*
X114032619Y-97073095D01*
X113911667Y-97073095D01*
X113790714Y-97012619D01*
X113730238Y-96952143D01*
X113669762Y-96831190D01*
X113609286Y-96589286D01*
X113548810Y-96468333D01*
X113488333Y-96407857D01*
X113367381Y-96347381D01*
X113246429Y-96347381D01*
X113125476Y-96407857D01*
X113065000Y-96468333D01*
X113004524Y-96589286D01*
X113004524Y-96891666D01*
X113065000Y-97073095D01*
X114274524Y-97617381D02*
X113004524Y-97617381D01*
X113004524Y-98101190D01*
X113065000Y-98222143D01*
X113125476Y-98282619D01*
X113246429Y-98343095D01*
X113427857Y-98343095D01*
X113548810Y-98282619D01*
X113609286Y-98222143D01*
X113669762Y-98101190D01*
X113669762Y-97617381D01*
X114274524Y-99552619D02*
X114274524Y-98826905D01*
X114274524Y-99189762D02*
X113004524Y-99189762D01*
X113185952Y-99068810D01*
X113306905Y-98947857D01*
X113367381Y-98826905D01*
X81004524Y-103082381D02*
X82032619Y-103082381D01*
X82153571Y-103142857D01*
X82214048Y-103203333D01*
X82274524Y-103324286D01*
X82274524Y-103566190D01*
X82214048Y-103687143D01*
X82153571Y-103747619D01*
X82032619Y-103808095D01*
X81004524Y-103808095D01*
X81004524Y-104291905D02*
X81004524Y-105078095D01*
X81488333Y-104654762D01*
X81488333Y-104836190D01*
X81548810Y-104957143D01*
X81609286Y-105017619D01*
X81730238Y-105078095D01*
X82032619Y-105078095D01*
X82153571Y-105017619D01*
X82214048Y-104957143D01*
X82274524Y-104836190D01*
X82274524Y-104473333D01*
X82214048Y-104352381D01*
X82153571Y-104291905D01*
X114367619Y-108004524D02*
X114367619Y-109032619D01*
X114307143Y-109153571D01*
X114246667Y-109214048D01*
X114125714Y-109274524D01*
X113883810Y-109274524D01*
X113762857Y-109214048D01*
X113702381Y-109153571D01*
X113641905Y-109032619D01*
X113641905Y-108004524D01*
X112432381Y-108004524D02*
X113037143Y-108004524D01*
X113097619Y-108609286D01*
X113037143Y-108548810D01*
X112916191Y-108488333D01*
X112613810Y-108488333D01*
X112492857Y-108548810D01*
X112432381Y-108609286D01*
X112371905Y-108730238D01*
X112371905Y-109032619D01*
X112432381Y-109153571D01*
X112492857Y-109214048D01*
X112613810Y-109274524D01*
X112916191Y-109274524D01*
X113037143Y-109214048D01*
X113097619Y-109153571D01*
X91254524Y-105082381D02*
X92282619Y-105082381D01*
X92403571Y-105142857D01*
X92464048Y-105203333D01*
X92524524Y-105324286D01*
X92524524Y-105566190D01*
X92464048Y-105687143D01*
X92403571Y-105747619D01*
X92282619Y-105808095D01*
X91254524Y-105808095D01*
X91254524Y-106291905D02*
X91254524Y-107138571D01*
X92524524Y-106594286D01*
X104404524Y-102732381D02*
X105432619Y-102732381D01*
X105553571Y-102792857D01*
X105614048Y-102853333D01*
X105674524Y-102974286D01*
X105674524Y-103216190D01*
X105614048Y-103337143D01*
X105553571Y-103397619D01*
X105432619Y-103458095D01*
X104404524Y-103458095D01*
X104948810Y-104244286D02*
X104888333Y-104123333D01*
X104827857Y-104062857D01*
X104706905Y-104002381D01*
X104646429Y-104002381D01*
X104525476Y-104062857D01*
X104465000Y-104123333D01*
X104404524Y-104244286D01*
X104404524Y-104486190D01*
X104465000Y-104607143D01*
X104525476Y-104667619D01*
X104646429Y-104728095D01*
X104706905Y-104728095D01*
X104827857Y-104667619D01*
X104888333Y-104607143D01*
X104948810Y-104486190D01*
X104948810Y-104244286D01*
X105009286Y-104123333D01*
X105069762Y-104062857D01*
X105190714Y-104002381D01*
X105432619Y-104002381D01*
X105553571Y-104062857D01*
X105614048Y-104123333D01*
X105674524Y-104244286D01*
X105674524Y-104486190D01*
X105614048Y-104607143D01*
X105553571Y-104667619D01*
X105432619Y-104728095D01*
X105190714Y-104728095D01*
X105069762Y-104667619D01*
X105009286Y-104607143D01*
X104948810Y-104486190D01*
X103404524Y-111682381D02*
X104432619Y-111682381D01*
X104553571Y-111742857D01*
X104614048Y-111803333D01*
X104674524Y-111924286D01*
X104674524Y-112166190D01*
X104614048Y-112287143D01*
X104553571Y-112347619D01*
X104432619Y-112408095D01*
X103404524Y-112408095D01*
X104674524Y-113073333D02*
X104674524Y-113315238D01*
X104614048Y-113436190D01*
X104553571Y-113496666D01*
X104372143Y-113617619D01*
X104130238Y-113678095D01*
X103646429Y-113678095D01*
X103525476Y-113617619D01*
X103465000Y-113557143D01*
X103404524Y-113436190D01*
X103404524Y-113194286D01*
X103465000Y-113073333D01*
X103525476Y-113012857D01*
X103646429Y-112952381D01*
X103948810Y-112952381D01*
X104069762Y-113012857D01*
X104130238Y-113073333D01*
X104190714Y-113194286D01*
X104190714Y-113436190D01*
X104130238Y-113557143D01*
X104069762Y-113617619D01*
X103948810Y-113678095D01*
%LPC*%
D15*
X81700000Y-91750000D03*
X123250000Y-91750000D03*
X123250000Y-118250000D03*
X81750000Y-118250000D03*
D16*
X85500000Y-114050000D03*
X89500000Y-114050000D03*
X85500000Y-116400000D03*
X89500000Y-116400000D03*
D17*
X91950000Y-116950000D03*
X93850000Y-116950000D03*
X98400000Y-106150000D03*
X100300000Y-106150000D03*
D18*
X112150000Y-103400000D03*
X114650000Y-103400000D03*
D17*
X121800000Y-94750000D03*
X123700000Y-94750000D03*
X115900000Y-90800000D03*
X114000000Y-90800000D03*
X81350000Y-110200000D03*
X83250000Y-110200000D03*
D19*
X123550000Y-100950000D03*
X123550000Y-96950000D03*
D17*
X115900000Y-92300000D03*
X114000000Y-92300000D03*
D19*
X123550000Y-104000000D03*
X123550000Y-108000000D03*
X121100000Y-104050000D03*
X121100000Y-108050000D03*
X121250000Y-100900000D03*
X121250000Y-96900000D03*
D20*
X119250000Y-100300000D03*
X119250000Y-98100000D03*
D21*
X116750000Y-103250000D03*
X118950000Y-103250000D03*
X117900000Y-90800000D03*
X120100000Y-90800000D03*
X117900000Y-92300000D03*
X120100000Y-92300000D03*
D20*
X119200000Y-111950000D03*
X119200000Y-109750000D03*
D21*
X99750000Y-112000000D03*
X97550000Y-112000000D03*
X85300000Y-111800000D03*
X87500000Y-111800000D03*
D22*
X92870000Y-91430000D03*
D23*
X95410000Y-91430000D03*
X97950000Y-91430000D03*
D22*
X90330000Y-91430000D03*
D23*
X87790000Y-91430000D03*
X85250000Y-91430000D03*
D24*
X123700000Y-111500000D03*
D25*
X122430000Y-111500000D03*
D24*
X123700000Y-114400000D03*
D25*
X122430000Y-114400000D03*
D20*
X119250000Y-93950000D03*
X119250000Y-96150000D03*
D26*
X103200000Y-97150000D03*
X105200000Y-97150000D03*
D27*
X107550000Y-91800000D03*
X100850000Y-91800000D03*
D22*
X98400000Y-118200000D03*
D23*
X100940000Y-118200000D03*
D28*
X95300000Y-119000000D03*
X85300000Y-119000000D03*
X110000000Y-119000000D03*
X120000000Y-119000000D03*
D29*
X107450000Y-115900000D03*
X109350000Y-115900000D03*
X108400000Y-118300000D03*
D21*
X105900000Y-118900000D03*
X103700000Y-118900000D03*
X90750000Y-93800000D03*
X92950000Y-93800000D03*
X100450000Y-99450000D03*
X98250000Y-99450000D03*
X100450000Y-101000000D03*
X98250000Y-101000000D03*
X100450000Y-102550000D03*
X98250000Y-102550000D03*
X100450000Y-104100000D03*
X98250000Y-104100000D03*
X96550000Y-93800000D03*
X98750000Y-93800000D03*
X116000000Y-116400000D03*
X118200000Y-116400000D03*
X111700000Y-116400000D03*
X113900000Y-116400000D03*
X81200000Y-111800000D03*
X83400000Y-111800000D03*
X99750000Y-110300000D03*
X97550000Y-110300000D03*
D20*
X95600000Y-111800000D03*
X95600000Y-109600000D03*
D21*
X94100000Y-114450000D03*
X91900000Y-114450000D03*
X85300000Y-110200000D03*
X87500000Y-110200000D03*
D20*
X89500000Y-111800000D03*
X89500000Y-109600000D03*
D21*
X99750000Y-108700000D03*
X97550000Y-108700000D03*
D30*
X117000000Y-100950000D03*
X110400000Y-100950000D03*
X110400000Y-94350000D03*
X117000000Y-94350000D03*
D31*
X96300000Y-106425000D03*
X96300000Y-105325000D03*
X96300000Y-104225000D03*
X96300000Y-103125000D03*
X96300000Y-102025000D03*
X96300000Y-100925000D03*
X96300000Y-99825000D03*
X96300000Y-98725000D03*
D32*
X96300000Y-97175000D03*
X92000000Y-108325000D03*
D29*
X85800000Y-108325000D03*
D33*
X81650000Y-108325000D03*
D34*
X81200000Y-94825000D03*
D35*
X116962000Y-105125000D03*
X116962000Y-105775000D03*
X116962000Y-106425000D03*
X116962000Y-107075000D03*
X116962000Y-107725000D03*
X116962000Y-108375000D03*
X116962000Y-109025000D03*
X116962000Y-109675000D03*
X116962000Y-110325000D03*
X116962000Y-110975000D03*
X116962000Y-111625000D03*
X116962000Y-112275000D03*
X109838000Y-112275000D03*
X109838000Y-111625000D03*
X109838000Y-110975000D03*
X109838000Y-110325000D03*
X109838000Y-109675000D03*
X109838000Y-109025000D03*
X109838000Y-108375000D03*
X109838000Y-107725000D03*
X109838000Y-107075000D03*
X109838000Y-106425000D03*
X109838000Y-105775000D03*
X109838000Y-105125000D03*
D28*
X109800000Y-114100000D03*
X112340000Y-114100000D03*
X114880000Y-114100000D03*
X117420000Y-114100000D03*
X119960000Y-114100000D03*
D36*
X91850000Y-110650000D03*
X92500000Y-110650000D03*
X93150000Y-110650000D03*
X93150000Y-112550000D03*
X92500000Y-112550000D03*
X91850000Y-112550000D03*
D37*
X107400000Y-106850000D03*
X105100000Y-106850000D03*
X102800000Y-106850000D03*
D38*
X105100000Y-100550000D03*
D39*
X102195000Y-109938000D03*
X103465000Y-109938000D03*
X104735000Y-109938000D03*
X106005000Y-109938000D03*
X106005000Y-115362000D03*
X104735000Y-115362000D03*
X103465000Y-115362000D03*
X102195000Y-115362000D03*
D15*
X123250000Y-122750000D03*
X123250000Y-149250000D03*
X81700000Y-149250000D03*
X81750000Y-122750000D03*
D28*
X89060000Y-147900000D03*
X94140000Y-147900000D03*
X111060000Y-147900000D03*
X116140000Y-147900000D03*
D22*
X90100000Y-141400000D03*
D23*
X92640000Y-141400000D03*
D22*
X112600000Y-141400000D03*
D23*
X115140000Y-141400000D03*
M02*
