G04 #@! TF.FileFunction,Legend,Top*
%FSLAX46Y46*%
G04 Gerber Fmt 4.6, Leading zero omitted, Abs format (unit mm)*
G04 Created by KiCad (PCBNEW 4.0.1-stable) date 2019/02/07 19:56:50*
%MOMM*%
G01*
G04 APERTURE LIST*
%ADD10C,0.100000*%
%ADD11C,0.150000*%
%ADD12C,0.120000*%
%ADD13C,0.200000*%
%ADD14C,0.254000*%
%ADD15C,2.600000*%
%ADD16R,1.600000X1.150000*%
%ADD17R,1.300000X1.600000*%
%ADD18R,1.600000X1.300000*%
%ADD19R,2.100000X2.100000*%
%ADD20O,2.100000X2.100000*%
%ADD21R,1.400000X1.400000*%
%ADD22O,1.400000X1.400000*%
%ADD23C,1.924000*%
%ADD24R,1.450000X1.050000*%
%ADD25R,1.800000X1.600000*%
%ADD26R,1.300000X3.400000*%
%ADD27R,3.400000X1.300000*%
%ADD28R,4.400000X4.400000*%
%ADD29R,1.540000X0.600000*%
G04 APERTURE END LIST*
D10*
D11*
X92290476Y-122479762D02*
X92433333Y-122527381D01*
X92671429Y-122527381D01*
X92766667Y-122479762D01*
X92814286Y-122432143D01*
X92861905Y-122336905D01*
X92861905Y-122241667D01*
X92814286Y-122146429D01*
X92766667Y-122098810D01*
X92671429Y-122051190D01*
X92480952Y-122003571D01*
X92385714Y-121955952D01*
X92338095Y-121908333D01*
X92290476Y-121813095D01*
X92290476Y-121717857D01*
X92338095Y-121622619D01*
X92385714Y-121575000D01*
X92480952Y-121527381D01*
X92719048Y-121527381D01*
X92861905Y-121575000D01*
X93242857Y-122241667D02*
X93719048Y-122241667D01*
X93147619Y-122527381D02*
X93480952Y-121527381D01*
X93814286Y-122527381D01*
X94004762Y-121527381D02*
X94576191Y-121527381D01*
X94290476Y-122527381D02*
X94290476Y-121527381D01*
X94861905Y-122479762D02*
X95004762Y-122527381D01*
X95242858Y-122527381D01*
X95338096Y-122479762D01*
X95385715Y-122432143D01*
X95433334Y-122336905D01*
X95433334Y-122241667D01*
X95385715Y-122146429D01*
X95338096Y-122098810D01*
X95242858Y-122051190D01*
X95052381Y-122003571D01*
X94957143Y-121955952D01*
X94909524Y-121908333D01*
X94861905Y-121813095D01*
X94861905Y-121717857D01*
X94909524Y-121622619D01*
X94957143Y-121575000D01*
X95052381Y-121527381D01*
X95290477Y-121527381D01*
X95433334Y-121575000D01*
X95861905Y-121527381D02*
X95861905Y-122336905D01*
X95909524Y-122432143D01*
X95957143Y-122479762D01*
X96052381Y-122527381D01*
X96242858Y-122527381D01*
X96338096Y-122479762D01*
X96385715Y-122432143D01*
X96433334Y-122336905D01*
X96433334Y-121527381D01*
X96909524Y-122527381D02*
X96909524Y-121527381D01*
X97242858Y-122241667D01*
X97576191Y-121527381D01*
X97576191Y-122527381D01*
X98004762Y-122241667D02*
X98480953Y-122241667D01*
X97909524Y-122527381D02*
X98242857Y-121527381D01*
X98576191Y-122527381D01*
X98909524Y-122146429D02*
X99671429Y-122146429D01*
X100671429Y-122527381D02*
X100100000Y-122527381D01*
X100385714Y-122527381D02*
X100385714Y-121527381D01*
X100290476Y-121670238D01*
X100195238Y-121765476D01*
X100100000Y-121813095D01*
X101290476Y-121527381D02*
X101385715Y-121527381D01*
X101480953Y-121575000D01*
X101528572Y-121622619D01*
X101576191Y-121717857D01*
X101623810Y-121908333D01*
X101623810Y-122146429D01*
X101576191Y-122336905D01*
X101528572Y-122432143D01*
X101480953Y-122479762D01*
X101385715Y-122527381D01*
X101290476Y-122527381D01*
X101195238Y-122479762D01*
X101147619Y-122432143D01*
X101100000Y-122336905D01*
X101052381Y-122146429D01*
X101052381Y-121908333D01*
X101100000Y-121717857D01*
X101147619Y-121622619D01*
X101195238Y-121575000D01*
X101290476Y-121527381D01*
X102242857Y-121527381D02*
X102338096Y-121527381D01*
X102433334Y-121575000D01*
X102480953Y-121622619D01*
X102528572Y-121717857D01*
X102576191Y-121908333D01*
X102576191Y-122146429D01*
X102528572Y-122336905D01*
X102480953Y-122432143D01*
X102433334Y-122479762D01*
X102338096Y-122527381D01*
X102242857Y-122527381D01*
X102147619Y-122479762D01*
X102100000Y-122432143D01*
X102052381Y-122336905D01*
X102004762Y-122146429D01*
X102004762Y-121908333D01*
X102052381Y-121717857D01*
X102100000Y-121622619D01*
X102147619Y-121575000D01*
X102242857Y-121527381D01*
X103004762Y-122527381D02*
X103004762Y-121527381D01*
X103100000Y-122146429D02*
X103385715Y-122527381D01*
X103385715Y-121860714D02*
X103004762Y-122241667D01*
X103814286Y-122527381D02*
X103814286Y-121860714D01*
X103814286Y-121527381D02*
X103766667Y-121575000D01*
X103814286Y-121622619D01*
X103861905Y-121575000D01*
X103814286Y-121527381D01*
X103814286Y-121622619D01*
X104290476Y-121860714D02*
X104290476Y-122527381D01*
X104290476Y-121955952D02*
X104338095Y-121908333D01*
X104433333Y-121860714D01*
X104576191Y-121860714D01*
X104671429Y-121908333D01*
X104719048Y-122003571D01*
X104719048Y-122527381D01*
X105147619Y-122479762D02*
X105290476Y-122527381D01*
X105528572Y-122527381D01*
X105623810Y-122479762D01*
X105671429Y-122432143D01*
X105719048Y-122336905D01*
X105719048Y-122241667D01*
X105671429Y-122146429D01*
X105623810Y-122098810D01*
X105528572Y-122051190D01*
X105338095Y-122003571D01*
X105242857Y-121955952D01*
X105195238Y-121908333D01*
X105147619Y-121813095D01*
X105147619Y-121717857D01*
X105195238Y-121622619D01*
X105242857Y-121575000D01*
X105338095Y-121527381D01*
X105576191Y-121527381D01*
X105719048Y-121575000D01*
X106100000Y-122241667D02*
X106576191Y-122241667D01*
X106004762Y-122527381D02*
X106338095Y-121527381D01*
X106671429Y-122527381D01*
X106861905Y-121527381D02*
X107433334Y-121527381D01*
X107147619Y-122527381D02*
X107147619Y-121527381D01*
X108433334Y-121860714D02*
X108671429Y-122527381D01*
X108909525Y-121860714D01*
X109671430Y-122479762D02*
X109576192Y-122527381D01*
X109385715Y-122527381D01*
X109290477Y-122479762D01*
X109242858Y-122384524D01*
X109242858Y-122003571D01*
X109290477Y-121908333D01*
X109385715Y-121860714D01*
X109576192Y-121860714D01*
X109671430Y-121908333D01*
X109719049Y-122003571D01*
X109719049Y-122098810D01*
X109242858Y-122194048D01*
X110147620Y-122527381D02*
X110147620Y-121860714D01*
X110147620Y-122051190D02*
X110195239Y-121955952D01*
X110242858Y-121908333D01*
X110338096Y-121860714D01*
X110433335Y-121860714D01*
X111195240Y-121860714D02*
X111195240Y-122527381D01*
X110957144Y-121479762D02*
X110719049Y-122194048D01*
X111338097Y-122194048D01*
X111719049Y-122432143D02*
X111766668Y-122479762D01*
X111719049Y-122527381D01*
X111671430Y-122479762D01*
X111719049Y-122432143D01*
X111719049Y-122527381D01*
X112100001Y-121527381D02*
X112766668Y-121527381D01*
X112338096Y-122527381D01*
X92957143Y-123601190D02*
X92909524Y-123553571D01*
X92814286Y-123505952D01*
X92719048Y-123505952D01*
X92623810Y-123553571D01*
X92576190Y-123601190D01*
X92528571Y-123696429D01*
X92528571Y-123791667D01*
X92576190Y-123886905D01*
X92623810Y-123934524D01*
X92719048Y-123982143D01*
X92814286Y-123982143D01*
X92909524Y-123934524D01*
X92957143Y-123886905D01*
X92957143Y-123505952D02*
X92957143Y-123886905D01*
X93004762Y-123934524D01*
X93052381Y-123934524D01*
X93147619Y-123886905D01*
X93195238Y-123791667D01*
X93195238Y-123553571D01*
X93100000Y-123410714D01*
X92957143Y-123315476D01*
X92766667Y-123267857D01*
X92576190Y-123315476D01*
X92433333Y-123410714D01*
X92338095Y-123553571D01*
X92290476Y-123744048D01*
X92338095Y-123934524D01*
X92433333Y-124077381D01*
X92576190Y-124172619D01*
X92766667Y-124220238D01*
X92957143Y-124172619D01*
X93100000Y-124077381D01*
X93385714Y-124172619D02*
X94147619Y-124172619D01*
X94290476Y-123410714D02*
X94528571Y-124077381D01*
X94766667Y-123410714D02*
X94528571Y-124077381D01*
X94433333Y-124315476D01*
X94385714Y-124363095D01*
X94290476Y-124410714D01*
X95147619Y-124077381D02*
X95147619Y-123410714D01*
X95147619Y-123505952D02*
X95195238Y-123458333D01*
X95290476Y-123410714D01*
X95433334Y-123410714D01*
X95528572Y-123458333D01*
X95576191Y-123553571D01*
X95576191Y-124077381D01*
X95576191Y-123553571D02*
X95623810Y-123458333D01*
X95719048Y-123410714D01*
X95861905Y-123410714D01*
X95957143Y-123458333D01*
X96004762Y-123553571D01*
X96004762Y-124077381D01*
X96338095Y-123410714D02*
X96719047Y-123410714D01*
X96480952Y-123077381D02*
X96480952Y-123934524D01*
X96528571Y-124029762D01*
X96623809Y-124077381D01*
X96719047Y-124077381D01*
X96814286Y-124172619D02*
X97576191Y-124172619D01*
X98338096Y-124077381D02*
X97766667Y-124077381D01*
X98052381Y-124077381D02*
X98052381Y-123077381D01*
X97957143Y-123220238D01*
X97861905Y-123315476D01*
X97766667Y-123363095D01*
X99290477Y-124077381D02*
X98719048Y-124077381D01*
X99004762Y-124077381D02*
X99004762Y-123077381D01*
X98909524Y-123220238D01*
X98814286Y-123315476D01*
X98719048Y-123363095D01*
X99623810Y-123077381D02*
X100290477Y-123077381D01*
X99861905Y-124077381D01*
X92957143Y-125151190D02*
X92909524Y-125103571D01*
X92814286Y-125055952D01*
X92719048Y-125055952D01*
X92623810Y-125103571D01*
X92576190Y-125151190D01*
X92528571Y-125246429D01*
X92528571Y-125341667D01*
X92576190Y-125436905D01*
X92623810Y-125484524D01*
X92719048Y-125532143D01*
X92814286Y-125532143D01*
X92909524Y-125484524D01*
X92957143Y-125436905D01*
X92957143Y-125055952D02*
X92957143Y-125436905D01*
X93004762Y-125484524D01*
X93052381Y-125484524D01*
X93147619Y-125436905D01*
X93195238Y-125341667D01*
X93195238Y-125103571D01*
X93100000Y-124960714D01*
X92957143Y-124865476D01*
X92766667Y-124817857D01*
X92576190Y-124865476D01*
X92433333Y-124960714D01*
X92338095Y-125103571D01*
X92290476Y-125294048D01*
X92338095Y-125484524D01*
X92433333Y-125627381D01*
X92576190Y-125722619D01*
X92766667Y-125770238D01*
X92957143Y-125722619D01*
X93100000Y-125627381D01*
X93623809Y-124960714D02*
X93623809Y-125817857D01*
X93576190Y-125913095D01*
X93480952Y-125960714D01*
X93433333Y-125960714D01*
X93623809Y-124627381D02*
X93576190Y-124675000D01*
X93623809Y-124722619D01*
X93671428Y-124675000D01*
X93623809Y-124627381D01*
X93623809Y-124722619D01*
X94099999Y-124960714D02*
X94099999Y-125817857D01*
X94052380Y-125913095D01*
X93957142Y-125960714D01*
X93909523Y-125960714D01*
X94099999Y-124627381D02*
X94052380Y-124675000D01*
X94099999Y-124722619D01*
X94147618Y-124675000D01*
X94099999Y-124627381D01*
X94099999Y-124722619D01*
X94338094Y-125722619D02*
X95099999Y-125722619D01*
X95290475Y-125579762D02*
X95385713Y-125627381D01*
X95576189Y-125627381D01*
X95671428Y-125579762D01*
X95719047Y-125484524D01*
X95719047Y-125436905D01*
X95671428Y-125341667D01*
X95576189Y-125294048D01*
X95433332Y-125294048D01*
X95338094Y-125246429D01*
X95290475Y-125151190D01*
X95290475Y-125103571D01*
X95338094Y-125008333D01*
X95433332Y-124960714D01*
X95576189Y-124960714D01*
X95671428Y-125008333D01*
X96147618Y-124960714D02*
X96147618Y-125960714D01*
X96147618Y-125008333D02*
X96242856Y-124960714D01*
X96433333Y-124960714D01*
X96528571Y-125008333D01*
X96576190Y-125055952D01*
X96623809Y-125151190D01*
X96623809Y-125436905D01*
X96576190Y-125532143D01*
X96528571Y-125579762D01*
X96433333Y-125627381D01*
X96242856Y-125627381D01*
X96147618Y-125579762D01*
X97052380Y-125627381D02*
X97052380Y-124960714D01*
X97052380Y-125151190D02*
X97099999Y-125055952D01*
X97147618Y-125008333D01*
X97242856Y-124960714D01*
X97338095Y-124960714D01*
X97671428Y-125627381D02*
X97671428Y-124960714D01*
X97671428Y-124627381D02*
X97623809Y-124675000D01*
X97671428Y-124722619D01*
X97719047Y-124675000D01*
X97671428Y-124627381D01*
X97671428Y-124722619D01*
X98147618Y-124960714D02*
X98147618Y-125627381D01*
X98147618Y-125055952D02*
X98195237Y-125008333D01*
X98290475Y-124960714D01*
X98433333Y-124960714D01*
X98528571Y-125008333D01*
X98576190Y-125103571D01*
X98576190Y-125627381D01*
X99480952Y-124960714D02*
X99480952Y-125770238D01*
X99433333Y-125865476D01*
X99385714Y-125913095D01*
X99290475Y-125960714D01*
X99147618Y-125960714D01*
X99052380Y-125913095D01*
X99480952Y-125579762D02*
X99385714Y-125627381D01*
X99195237Y-125627381D01*
X99099999Y-125579762D01*
X99052380Y-125532143D01*
X99004761Y-125436905D01*
X99004761Y-125151190D01*
X99052380Y-125055952D01*
X99099999Y-125008333D01*
X99195237Y-124960714D01*
X99385714Y-124960714D01*
X99480952Y-125008333D01*
X99909523Y-125579762D02*
X100004761Y-125627381D01*
X100195237Y-125627381D01*
X100290476Y-125579762D01*
X100338095Y-125484524D01*
X100338095Y-125436905D01*
X100290476Y-125341667D01*
X100195237Y-125294048D01*
X100052380Y-125294048D01*
X99957142Y-125246429D01*
X99909523Y-125151190D01*
X99909523Y-125103571D01*
X99957142Y-125008333D01*
X100052380Y-124960714D01*
X100195237Y-124960714D01*
X100290476Y-125008333D01*
X92957143Y-126701190D02*
X92909524Y-126653571D01*
X92814286Y-126605952D01*
X92719048Y-126605952D01*
X92623810Y-126653571D01*
X92576190Y-126701190D01*
X92528571Y-126796429D01*
X92528571Y-126891667D01*
X92576190Y-126986905D01*
X92623810Y-127034524D01*
X92719048Y-127082143D01*
X92814286Y-127082143D01*
X92909524Y-127034524D01*
X92957143Y-126986905D01*
X92957143Y-126605952D02*
X92957143Y-126986905D01*
X93004762Y-127034524D01*
X93052381Y-127034524D01*
X93147619Y-126986905D01*
X93195238Y-126891667D01*
X93195238Y-126653571D01*
X93100000Y-126510714D01*
X92957143Y-126415476D01*
X92766667Y-126367857D01*
X92576190Y-126415476D01*
X92433333Y-126510714D01*
X92338095Y-126653571D01*
X92290476Y-126844048D01*
X92338095Y-127034524D01*
X92433333Y-127177381D01*
X92576190Y-127272619D01*
X92766667Y-127320238D01*
X92957143Y-127272619D01*
X93100000Y-127177381D01*
X93528571Y-127177381D02*
X94052381Y-126510714D01*
X93528571Y-126510714D02*
X94052381Y-127177381D01*
X94957143Y-127177381D02*
X94385714Y-127177381D01*
X94671428Y-127177381D02*
X94671428Y-126177381D01*
X94576190Y-126320238D01*
X94480952Y-126415476D01*
X94385714Y-126463095D01*
X95576190Y-126177381D02*
X95671429Y-126177381D01*
X95766667Y-126225000D01*
X95814286Y-126272619D01*
X95861905Y-126367857D01*
X95909524Y-126558333D01*
X95909524Y-126796429D01*
X95861905Y-126986905D01*
X95814286Y-127082143D01*
X95766667Y-127129762D01*
X95671429Y-127177381D01*
X95576190Y-127177381D01*
X95480952Y-127129762D01*
X95433333Y-127082143D01*
X95385714Y-126986905D01*
X95338095Y-126796429D01*
X95338095Y-126558333D01*
X95385714Y-126367857D01*
X95433333Y-126272619D01*
X95480952Y-126225000D01*
X95576190Y-126177381D01*
X96385714Y-127177381D02*
X96576190Y-127177381D01*
X96671429Y-127129762D01*
X96719048Y-127082143D01*
X96814286Y-126939286D01*
X96861905Y-126748810D01*
X96861905Y-126367857D01*
X96814286Y-126272619D01*
X96766667Y-126225000D01*
X96671429Y-126177381D01*
X96480952Y-126177381D01*
X96385714Y-126225000D01*
X96338095Y-126272619D01*
X96290476Y-126367857D01*
X96290476Y-126605952D01*
X96338095Y-126701190D01*
X96385714Y-126748810D01*
X96480952Y-126796429D01*
X96671429Y-126796429D01*
X96766667Y-126748810D01*
X96814286Y-126701190D01*
X96861905Y-126605952D01*
X97338095Y-127177381D02*
X97528571Y-127177381D01*
X97623810Y-127129762D01*
X97671429Y-127082143D01*
X97766667Y-126939286D01*
X97814286Y-126748810D01*
X97814286Y-126367857D01*
X97766667Y-126272619D01*
X97719048Y-126225000D01*
X97623810Y-126177381D01*
X97433333Y-126177381D01*
X97338095Y-126225000D01*
X97290476Y-126272619D01*
X97242857Y-126367857D01*
X97242857Y-126605952D01*
X97290476Y-126701190D01*
X97338095Y-126748810D01*
X97433333Y-126796429D01*
X97623810Y-126796429D01*
X97719048Y-126748810D01*
X97766667Y-126701190D01*
X97814286Y-126605952D01*
X98290476Y-127177381D02*
X98480952Y-127177381D01*
X98576191Y-127129762D01*
X98623810Y-127082143D01*
X98719048Y-126939286D01*
X98766667Y-126748810D01*
X98766667Y-126367857D01*
X98719048Y-126272619D01*
X98671429Y-126225000D01*
X98576191Y-126177381D01*
X98385714Y-126177381D01*
X98290476Y-126225000D01*
X98242857Y-126272619D01*
X98195238Y-126367857D01*
X98195238Y-126605952D01*
X98242857Y-126701190D01*
X98290476Y-126748810D01*
X98385714Y-126796429D01*
X98576191Y-126796429D01*
X98671429Y-126748810D01*
X98719048Y-126701190D01*
X98766667Y-126605952D01*
X99242857Y-127177381D02*
X99433333Y-127177381D01*
X99528572Y-127129762D01*
X99576191Y-127082143D01*
X99671429Y-126939286D01*
X99719048Y-126748810D01*
X99719048Y-126367857D01*
X99671429Y-126272619D01*
X99623810Y-126225000D01*
X99528572Y-126177381D01*
X99338095Y-126177381D01*
X99242857Y-126225000D01*
X99195238Y-126272619D01*
X99147619Y-126367857D01*
X99147619Y-126605952D01*
X99195238Y-126701190D01*
X99242857Y-126748810D01*
X99338095Y-126796429D01*
X99528572Y-126796429D01*
X99623810Y-126748810D01*
X99671429Y-126701190D01*
X99719048Y-126605952D01*
X83700000Y-91750000D02*
G75*
G03X83700000Y-91750000I-2000000J0D01*
G01*
X125250000Y-91750000D02*
G75*
G03X125250000Y-91750000I-2000000J0D01*
G01*
X125250000Y-118250000D02*
G75*
G03X125250000Y-118250000I-2000000J0D01*
G01*
X83750000Y-118250000D02*
G75*
G03X83750000Y-118250000I-2000000J0D01*
G01*
D12*
X87100000Y-116350000D02*
X87800000Y-116350000D01*
X87800000Y-117550000D02*
X87100000Y-117550000D01*
X107450000Y-90600000D02*
X106350000Y-90600000D01*
X106350000Y-90600000D02*
X106350000Y-93200000D01*
X107450000Y-90600000D02*
X107450000Y-93200000D01*
X112700000Y-91950000D02*
X112700000Y-90850000D01*
X112700000Y-90850000D02*
X110100000Y-90850000D01*
X112700000Y-91950000D02*
X110100000Y-91950000D01*
X105900000Y-112650000D02*
X105900000Y-111550000D01*
X105900000Y-111550000D02*
X103300000Y-111550000D01*
X105900000Y-112650000D02*
X103300000Y-112650000D01*
X99280000Y-92760000D02*
X99280000Y-90100000D01*
X94140000Y-92760000D02*
X99280000Y-92760000D01*
X94140000Y-90100000D02*
X99280000Y-90100000D01*
X94140000Y-92760000D02*
X94140000Y-90100000D01*
X92870000Y-92760000D02*
X91540000Y-92760000D01*
X91540000Y-92760000D02*
X91540000Y-91430000D01*
X83920000Y-90100000D02*
X83920000Y-92760000D01*
X89060000Y-90100000D02*
X83920000Y-90100000D01*
X89060000Y-92760000D02*
X83920000Y-92760000D01*
X89060000Y-90100000D02*
X89060000Y-92760000D01*
X90330000Y-90100000D02*
X91660000Y-90100000D01*
X91660000Y-90100000D02*
X91660000Y-91430000D01*
X121735000Y-110390000D02*
X121735000Y-111192470D01*
X121735000Y-111807530D02*
X121735000Y-112610000D01*
X122940000Y-110390000D02*
X121735000Y-110390000D01*
X122940000Y-112610000D02*
X121735000Y-112610000D01*
X122940000Y-110390000D02*
X122940000Y-110936529D01*
X122940000Y-112063471D02*
X122940000Y-112610000D01*
X123700000Y-110390000D02*
X124460000Y-110390000D01*
X124460000Y-110390000D02*
X124460000Y-111500000D01*
X121735000Y-113290000D02*
X121735000Y-114092470D01*
X121735000Y-114707530D02*
X121735000Y-115510000D01*
X122940000Y-113290000D02*
X121735000Y-113290000D01*
X122940000Y-115510000D02*
X121735000Y-115510000D01*
X122940000Y-113290000D02*
X122940000Y-113836529D01*
X122940000Y-114963471D02*
X122940000Y-115510000D01*
X123700000Y-113290000D02*
X124460000Y-113290000D01*
X124460000Y-113290000D02*
X124460000Y-114400000D01*
X102270000Y-119530000D02*
X102270000Y-116870000D01*
X99670000Y-119530000D02*
X102270000Y-119530000D01*
X99670000Y-116870000D02*
X102270000Y-116870000D01*
X99670000Y-119530000D02*
X99670000Y-116870000D01*
X98400000Y-119530000D02*
X97070000Y-119530000D01*
X97070000Y-119530000D02*
X97070000Y-118200000D01*
D11*
X85300000Y-121000000D02*
X86300000Y-121000000D01*
X86300000Y-121000000D02*
X86300000Y-117000000D01*
X86300000Y-117000000D02*
X85300000Y-117000000D01*
X95300000Y-121000000D02*
X94300000Y-121000000D01*
X94300000Y-121000000D02*
X94300000Y-117000000D01*
X94300000Y-117000000D02*
X95300000Y-117000000D01*
X120000000Y-117000000D02*
X119000000Y-117000000D01*
X119000000Y-117000000D02*
X119000000Y-121000000D01*
X119000000Y-121000000D02*
X120000000Y-121000000D01*
X110000000Y-117000000D02*
X111000000Y-117000000D01*
X111000000Y-117000000D02*
X111000000Y-121000000D01*
X111000000Y-121000000D02*
X110000000Y-121000000D01*
D12*
X103300000Y-97420000D02*
X104300000Y-97420000D01*
X104300000Y-98780000D02*
X103300000Y-98780000D01*
X106220000Y-97150000D02*
X106220000Y-96150000D01*
X107580000Y-96150000D02*
X107580000Y-97150000D01*
X107070000Y-112800000D02*
X107070000Y-111800000D01*
X108430000Y-111800000D02*
X108430000Y-112800000D01*
X103600000Y-112920000D02*
X104600000Y-112920000D01*
X104600000Y-114280000D02*
X103600000Y-114280000D01*
D13*
X100600000Y-90300000D02*
X104800000Y-90300000D01*
X104800000Y-93500000D02*
X100600000Y-93500000D01*
X100600000Y-91400000D02*
X100600000Y-92400000D01*
X104800000Y-91400000D02*
X104800000Y-92400000D01*
D14*
X99847370Y-90811000D02*
G75*
G03X99847370Y-90811000I-53370J0D01*
G01*
D13*
X104800000Y-97200000D02*
X100600000Y-97200000D01*
X100600000Y-94000000D02*
X104800000Y-94000000D01*
X104800000Y-96100000D02*
X104800000Y-95100000D01*
X100600000Y-96100000D02*
X100600000Y-95100000D01*
D14*
X105659370Y-96689000D02*
G75*
G03X105659370Y-96689000I-53370J0D01*
G01*
X103450000Y-99150000D02*
X106950000Y-99150000D01*
X106950000Y-107650000D02*
X103450000Y-107650000D01*
X101904000Y-100883000D02*
G75*
G03X101904000Y-100883000I-84000J0D01*
G01*
D11*
X80000000Y-113950000D02*
X80000000Y-95950000D01*
X99500000Y-113950000D02*
X99500000Y-95950000D01*
X99500000Y-95950000D02*
X74000000Y-95950000D01*
X74000000Y-95950000D02*
X74000000Y-113950000D01*
X74000000Y-113950000D02*
X99500000Y-113950000D01*
X110700000Y-108600000D02*
X112700000Y-108600000D01*
X113200000Y-112300000D02*
X113200000Y-109100000D01*
X120200000Y-112800000D02*
X113700000Y-112800000D01*
X120700000Y-110300000D02*
X120700000Y-112300000D01*
X125200000Y-109800000D02*
X121200000Y-109800000D01*
X125700000Y-94800000D02*
X125700000Y-109300000D01*
X121200000Y-94300000D02*
X125200000Y-94300000D01*
X120700000Y-90100000D02*
X120700000Y-93800000D01*
X113700000Y-89600000D02*
X120200000Y-89600000D01*
X113200000Y-93800000D02*
X113200000Y-90100000D01*
X110700000Y-94300000D02*
X112700000Y-94300000D01*
X110200000Y-108100000D02*
X110200000Y-94800000D01*
X113200000Y-109100000D02*
G75*
G03X112700000Y-108600000I-500000J0D01*
G01*
X112700000Y-94300000D02*
G75*
G03X113200000Y-93800000I0J500000D01*
G01*
X113700000Y-89600000D02*
G75*
G03X113200000Y-90100000I0J-500000D01*
G01*
X121200000Y-109800000D02*
G75*
G03X120700000Y-110300000I0J-500000D01*
G01*
X120700000Y-93800000D02*
G75*
G03X121200000Y-94300000I500000J0D01*
G01*
X120700000Y-90100000D02*
G75*
G03X120200000Y-89600000I-500000J0D01*
G01*
X125700000Y-94800000D02*
G75*
G03X125200000Y-94300000I-500000J0D01*
G01*
X125200000Y-109800000D02*
G75*
G03X125700000Y-109300000I0J500000D01*
G01*
X120200000Y-112800000D02*
G75*
G03X120700000Y-112300000I0J500000D01*
G01*
X113200000Y-112300000D02*
G75*
G03X113700000Y-112800000I500000J0D01*
G01*
X110200000Y-108100000D02*
G75*
G03X110700000Y-108600000I500000J0D01*
G01*
X110700000Y-94300000D02*
G75*
G03X110200000Y-94800000I0J-500000D01*
G01*
D14*
X114940000Y-103800000D02*
X112060000Y-103800000D01*
X112060000Y-97200000D02*
X114940000Y-97200000D01*
X114940000Y-97200000D02*
X114940000Y-98300000D01*
X114940000Y-103800000D02*
X114940000Y-102700000D01*
X112060000Y-97200000D02*
X112060000Y-98300000D01*
X112060000Y-103800000D02*
X112060000Y-102700000D01*
D11*
X120800000Y-90100000D02*
X121000000Y-90100000D01*
X121000000Y-90100000D02*
X121000000Y-115100000D01*
X121000000Y-115100000D02*
X120800000Y-115100000D01*
X108800000Y-115100000D02*
X108800000Y-90100000D01*
X108800000Y-90100000D02*
X120800000Y-90100000D01*
X120800000Y-115100000D02*
X108800000Y-115100000D01*
X125250000Y-122750000D02*
G75*
G03X125250000Y-122750000I-2000000J0D01*
G01*
X125250000Y-149250000D02*
G75*
G03X125250000Y-149250000I-2000000J0D01*
G01*
X83700000Y-149250000D02*
G75*
G03X83700000Y-149250000I-2000000J0D01*
G01*
X83750000Y-122750000D02*
G75*
G03X83750000Y-122750000I-2000000J0D01*
G01*
X92235000Y-151075000D02*
X92235000Y-150440000D01*
X92235000Y-150440000D02*
X96045000Y-150440000D01*
X96045000Y-150440000D02*
X96045000Y-151075000D01*
X87155000Y-151075000D02*
X87155000Y-150440000D01*
X87155000Y-150440000D02*
X90965000Y-150440000D01*
X90965000Y-150440000D02*
X90965000Y-151075000D01*
X86520000Y-147900000D02*
X86520000Y-144090000D01*
X86520000Y-144090000D02*
X86520000Y-143455000D01*
X86520000Y-143455000D02*
X96680000Y-143455000D01*
X96680000Y-143455000D02*
X96680000Y-151075000D01*
X96680000Y-151075000D02*
X86520000Y-151075000D01*
X86520000Y-151075000D02*
X86520000Y-147900000D01*
X114235000Y-151075000D02*
X114235000Y-150440000D01*
X114235000Y-150440000D02*
X118045000Y-150440000D01*
X118045000Y-150440000D02*
X118045000Y-151075000D01*
X109155000Y-151075000D02*
X109155000Y-150440000D01*
X109155000Y-150440000D02*
X112965000Y-150440000D01*
X112965000Y-150440000D02*
X112965000Y-151075000D01*
X108520000Y-147900000D02*
X108520000Y-144090000D01*
X108520000Y-144090000D02*
X108520000Y-143455000D01*
X108520000Y-143455000D02*
X118680000Y-143455000D01*
X118680000Y-143455000D02*
X118680000Y-151075000D01*
X118680000Y-151075000D02*
X108520000Y-151075000D01*
X108520000Y-151075000D02*
X108520000Y-147900000D01*
D12*
X93970000Y-142730000D02*
X93970000Y-140070000D01*
X91370000Y-142730000D02*
X93970000Y-142730000D01*
X91370000Y-140070000D02*
X93970000Y-140070000D01*
X91370000Y-142730000D02*
X91370000Y-140070000D01*
X90100000Y-142730000D02*
X88770000Y-142730000D01*
X88770000Y-142730000D02*
X88770000Y-141400000D01*
X116470000Y-142730000D02*
X116470000Y-140070000D01*
X113870000Y-142730000D02*
X116470000Y-142730000D01*
X113870000Y-140070000D02*
X116470000Y-140070000D01*
X113870000Y-142730000D02*
X113870000Y-140070000D01*
X112600000Y-142730000D02*
X111270000Y-142730000D01*
X111270000Y-142730000D02*
X111270000Y-141400000D01*
D11*
X90133334Y-117357143D02*
X90085715Y-117404762D01*
X89942858Y-117452381D01*
X89847620Y-117452381D01*
X89704762Y-117404762D01*
X89609524Y-117309524D01*
X89561905Y-117214286D01*
X89514286Y-117023810D01*
X89514286Y-116880952D01*
X89561905Y-116690476D01*
X89609524Y-116595238D01*
X89704762Y-116500000D01*
X89847620Y-116452381D01*
X89942858Y-116452381D01*
X90085715Y-116500000D01*
X90133334Y-116547619D01*
X91085715Y-117452381D02*
X90514286Y-117452381D01*
X90800000Y-117452381D02*
X90800000Y-116452381D01*
X90704762Y-116595238D01*
X90609524Y-116690476D01*
X90514286Y-116738095D01*
X108802381Y-93138095D02*
X107802381Y-93138095D01*
X107802381Y-92900000D01*
X107850000Y-92757142D01*
X107945238Y-92661904D01*
X108040476Y-92614285D01*
X108230952Y-92566666D01*
X108373810Y-92566666D01*
X108564286Y-92614285D01*
X108659524Y-92661904D01*
X108754762Y-92757142D01*
X108802381Y-92900000D01*
X108802381Y-93138095D01*
X108135714Y-91709523D02*
X108802381Y-91709523D01*
X107754762Y-91947619D02*
X108469048Y-92185714D01*
X108469048Y-91566666D01*
X110161905Y-93452381D02*
X110161905Y-92452381D01*
X110400000Y-92452381D01*
X110542858Y-92500000D01*
X110638096Y-92595238D01*
X110685715Y-92690476D01*
X110733334Y-92880952D01*
X110733334Y-93023810D01*
X110685715Y-93214286D01*
X110638096Y-93309524D01*
X110542858Y-93404762D01*
X110400000Y-93452381D01*
X110161905Y-93452381D01*
X111638096Y-92452381D02*
X111161905Y-92452381D01*
X111114286Y-92928571D01*
X111161905Y-92880952D01*
X111257143Y-92833333D01*
X111495239Y-92833333D01*
X111590477Y-92880952D01*
X111638096Y-92928571D01*
X111685715Y-93023810D01*
X111685715Y-93261905D01*
X111638096Y-93357143D01*
X111590477Y-93404762D01*
X111495239Y-93452381D01*
X111257143Y-93452381D01*
X111161905Y-93404762D01*
X111114286Y-93357143D01*
X102985714Y-110902381D02*
X102985714Y-109902381D01*
X103223809Y-109902381D01*
X103366667Y-109950000D01*
X103461905Y-110045238D01*
X103509524Y-110140476D01*
X103557143Y-110330952D01*
X103557143Y-110473810D01*
X103509524Y-110664286D01*
X103461905Y-110759524D01*
X103366667Y-110854762D01*
X103223809Y-110902381D01*
X102985714Y-110902381D01*
X104509524Y-110902381D02*
X103938095Y-110902381D01*
X104223809Y-110902381D02*
X104223809Y-109902381D01*
X104128571Y-110045238D01*
X104033333Y-110140476D01*
X103938095Y-110188095D01*
X105128571Y-109902381D02*
X105223810Y-109902381D01*
X105319048Y-109950000D01*
X105366667Y-109997619D01*
X105414286Y-110092857D01*
X105461905Y-110283333D01*
X105461905Y-110521429D01*
X105414286Y-110711905D01*
X105366667Y-110807143D01*
X105319048Y-110854762D01*
X105223810Y-110902381D01*
X105128571Y-110902381D01*
X105033333Y-110854762D01*
X104985714Y-110807143D01*
X104938095Y-110711905D01*
X104890476Y-110521429D01*
X104890476Y-110283333D01*
X104938095Y-110092857D01*
X104985714Y-109997619D01*
X105033333Y-109950000D01*
X105128571Y-109902381D01*
X93411905Y-89202381D02*
X93411905Y-88202381D01*
X93792858Y-88202381D01*
X93888096Y-88250000D01*
X93935715Y-88297619D01*
X93983334Y-88392857D01*
X93983334Y-88535714D01*
X93935715Y-88630952D01*
X93888096Y-88678571D01*
X93792858Y-88726190D01*
X93411905Y-88726190D01*
X94935715Y-89202381D02*
X94364286Y-89202381D01*
X94650000Y-89202381D02*
X94650000Y-88202381D01*
X94554762Y-88345238D01*
X94459524Y-88440476D01*
X94364286Y-88488095D01*
X88411905Y-89252381D02*
X88411905Y-88252381D01*
X88792858Y-88252381D01*
X88888096Y-88300000D01*
X88935715Y-88347619D01*
X88983334Y-88442857D01*
X88983334Y-88585714D01*
X88935715Y-88680952D01*
X88888096Y-88728571D01*
X88792858Y-88776190D01*
X88411905Y-88776190D01*
X89316667Y-88252381D02*
X89935715Y-88252381D01*
X89602381Y-88633333D01*
X89745239Y-88633333D01*
X89840477Y-88680952D01*
X89888096Y-88728571D01*
X89935715Y-88823810D01*
X89935715Y-89061905D01*
X89888096Y-89157143D01*
X89840477Y-89204762D01*
X89745239Y-89252381D01*
X89459524Y-89252381D01*
X89364286Y-89204762D01*
X89316667Y-89157143D01*
X122411905Y-108102381D02*
X122411905Y-107102381D01*
X122792858Y-107102381D01*
X122888096Y-107150000D01*
X122935715Y-107197619D01*
X122983334Y-107292857D01*
X122983334Y-107435714D01*
X122935715Y-107530952D01*
X122888096Y-107578571D01*
X122792858Y-107626190D01*
X122411905Y-107626190D01*
X123840477Y-107435714D02*
X123840477Y-108102381D01*
X123602381Y-107054762D02*
X123364286Y-107769048D01*
X123983334Y-107769048D01*
X122411905Y-109552381D02*
X122411905Y-108552381D01*
X122792858Y-108552381D01*
X122888096Y-108600000D01*
X122935715Y-108647619D01*
X122983334Y-108742857D01*
X122983334Y-108885714D01*
X122935715Y-108980952D01*
X122888096Y-109028571D01*
X122792858Y-109076190D01*
X122411905Y-109076190D01*
X123888096Y-108552381D02*
X123411905Y-108552381D01*
X123364286Y-109028571D01*
X123411905Y-108980952D01*
X123507143Y-108933333D01*
X123745239Y-108933333D01*
X123840477Y-108980952D01*
X123888096Y-109028571D01*
X123935715Y-109123810D01*
X123935715Y-109361905D01*
X123888096Y-109457143D01*
X123840477Y-109504762D01*
X123745239Y-109552381D01*
X123507143Y-109552381D01*
X123411905Y-109504762D01*
X123364286Y-109457143D01*
X100361905Y-116552381D02*
X100361905Y-115552381D01*
X100742858Y-115552381D01*
X100838096Y-115600000D01*
X100885715Y-115647619D01*
X100933334Y-115742857D01*
X100933334Y-115885714D01*
X100885715Y-115980952D01*
X100838096Y-116028571D01*
X100742858Y-116076190D01*
X100361905Y-116076190D01*
X101409524Y-116552381D02*
X101600000Y-116552381D01*
X101695239Y-116504762D01*
X101742858Y-116457143D01*
X101838096Y-116314286D01*
X101885715Y-116123810D01*
X101885715Y-115742857D01*
X101838096Y-115647619D01*
X101790477Y-115600000D01*
X101695239Y-115552381D01*
X101504762Y-115552381D01*
X101409524Y-115600000D01*
X101361905Y-115647619D01*
X101314286Y-115742857D01*
X101314286Y-115980952D01*
X101361905Y-116076190D01*
X101409524Y-116123810D01*
X101504762Y-116171429D01*
X101695239Y-116171429D01*
X101790477Y-116123810D01*
X101838096Y-116076190D01*
X101885715Y-115980952D01*
X88835714Y-119552381D02*
X88835714Y-118552381D01*
X89216667Y-118552381D01*
X89311905Y-118600000D01*
X89359524Y-118647619D01*
X89407143Y-118742857D01*
X89407143Y-118885714D01*
X89359524Y-118980952D01*
X89311905Y-119028571D01*
X89216667Y-119076190D01*
X88835714Y-119076190D01*
X90359524Y-119552381D02*
X89788095Y-119552381D01*
X90073809Y-119552381D02*
X90073809Y-118552381D01*
X89978571Y-118695238D01*
X89883333Y-118790476D01*
X89788095Y-118838095D01*
X90740476Y-118647619D02*
X90788095Y-118600000D01*
X90883333Y-118552381D01*
X91121429Y-118552381D01*
X91216667Y-118600000D01*
X91264286Y-118647619D01*
X91311905Y-118742857D01*
X91311905Y-118838095D01*
X91264286Y-118980952D01*
X90692857Y-119552381D01*
X91311905Y-119552381D01*
X115085714Y-119952381D02*
X115085714Y-118952381D01*
X115466667Y-118952381D01*
X115561905Y-119000000D01*
X115609524Y-119047619D01*
X115657143Y-119142857D01*
X115657143Y-119285714D01*
X115609524Y-119380952D01*
X115561905Y-119428571D01*
X115466667Y-119476190D01*
X115085714Y-119476190D01*
X116609524Y-119952381D02*
X116038095Y-119952381D01*
X116323809Y-119952381D02*
X116323809Y-118952381D01*
X116228571Y-119095238D01*
X116133333Y-119190476D01*
X116038095Y-119238095D01*
X117514286Y-118952381D02*
X117038095Y-118952381D01*
X116990476Y-119428571D01*
X117038095Y-119380952D01*
X117133333Y-119333333D01*
X117371429Y-119333333D01*
X117466667Y-119380952D01*
X117514286Y-119428571D01*
X117561905Y-119523810D01*
X117561905Y-119761905D01*
X117514286Y-119857143D01*
X117466667Y-119904762D01*
X117371429Y-119952381D01*
X117133333Y-119952381D01*
X117038095Y-119904762D01*
X116990476Y-119857143D01*
X103157143Y-100002381D02*
X102823809Y-99526190D01*
X102585714Y-100002381D02*
X102585714Y-99002381D01*
X102966667Y-99002381D01*
X103061905Y-99050000D01*
X103109524Y-99097619D01*
X103157143Y-99192857D01*
X103157143Y-99335714D01*
X103109524Y-99430952D01*
X103061905Y-99478571D01*
X102966667Y-99526190D01*
X102585714Y-99526190D01*
X104109524Y-100002381D02*
X103538095Y-100002381D01*
X103823809Y-100002381D02*
X103823809Y-99002381D01*
X103728571Y-99145238D01*
X103633333Y-99240476D01*
X103538095Y-99288095D01*
X105061905Y-100002381D02*
X104490476Y-100002381D01*
X104776190Y-100002381D02*
X104776190Y-99002381D01*
X104680952Y-99145238D01*
X104585714Y-99240476D01*
X104490476Y-99288095D01*
X108802381Y-97292857D02*
X108326190Y-97626191D01*
X108802381Y-97864286D02*
X107802381Y-97864286D01*
X107802381Y-97483333D01*
X107850000Y-97388095D01*
X107897619Y-97340476D01*
X107992857Y-97292857D01*
X108135714Y-97292857D01*
X108230952Y-97340476D01*
X108278571Y-97388095D01*
X108326190Y-97483333D01*
X108326190Y-97864286D01*
X108802381Y-96340476D02*
X108802381Y-96911905D01*
X108802381Y-96626191D02*
X107802381Y-96626191D01*
X107945238Y-96721429D01*
X108040476Y-96816667D01*
X108088095Y-96911905D01*
X107897619Y-95959524D02*
X107850000Y-95911905D01*
X107802381Y-95816667D01*
X107802381Y-95578571D01*
X107850000Y-95483333D01*
X107897619Y-95435714D01*
X107992857Y-95388095D01*
X108088095Y-95388095D01*
X108230952Y-95435714D01*
X108802381Y-96007143D01*
X108802381Y-95388095D01*
X108302381Y-109392857D02*
X107826190Y-109726191D01*
X108302381Y-109964286D02*
X107302381Y-109964286D01*
X107302381Y-109583333D01*
X107350000Y-109488095D01*
X107397619Y-109440476D01*
X107492857Y-109392857D01*
X107635714Y-109392857D01*
X107730952Y-109440476D01*
X107778571Y-109488095D01*
X107826190Y-109583333D01*
X107826190Y-109964286D01*
X108302381Y-108440476D02*
X108302381Y-109011905D01*
X108302381Y-108726191D02*
X107302381Y-108726191D01*
X107445238Y-108821429D01*
X107540476Y-108916667D01*
X107588095Y-109011905D01*
X108302381Y-107964286D02*
X108302381Y-107773810D01*
X108254762Y-107678571D01*
X108207143Y-107630952D01*
X108064286Y-107535714D01*
X107873810Y-107488095D01*
X107492857Y-107488095D01*
X107397619Y-107535714D01*
X107350000Y-107583333D01*
X107302381Y-107678571D01*
X107302381Y-107869048D01*
X107350000Y-107964286D01*
X107397619Y-108011905D01*
X107492857Y-108059524D01*
X107730952Y-108059524D01*
X107826190Y-108011905D01*
X107873810Y-107964286D01*
X107921429Y-107869048D01*
X107921429Y-107678571D01*
X107873810Y-107583333D01*
X107826190Y-107535714D01*
X107730952Y-107488095D01*
X103457143Y-115702381D02*
X103123809Y-115226190D01*
X102885714Y-115702381D02*
X102885714Y-114702381D01*
X103266667Y-114702381D01*
X103361905Y-114750000D01*
X103409524Y-114797619D01*
X103457143Y-114892857D01*
X103457143Y-115035714D01*
X103409524Y-115130952D01*
X103361905Y-115178571D01*
X103266667Y-115226190D01*
X102885714Y-115226190D01*
X103838095Y-114797619D02*
X103885714Y-114750000D01*
X103980952Y-114702381D01*
X104219048Y-114702381D01*
X104314286Y-114750000D01*
X104361905Y-114797619D01*
X104409524Y-114892857D01*
X104409524Y-114988095D01*
X104361905Y-115130952D01*
X103790476Y-115702381D01*
X104409524Y-115702381D01*
X104742857Y-114702381D02*
X105361905Y-114702381D01*
X105028571Y-115083333D01*
X105171429Y-115083333D01*
X105266667Y-115130952D01*
X105314286Y-115178571D01*
X105361905Y-115273810D01*
X105361905Y-115511905D01*
X105314286Y-115607143D01*
X105266667Y-115654762D01*
X105171429Y-115702381D01*
X104885714Y-115702381D01*
X104790476Y-115654762D01*
X104742857Y-115607143D01*
D14*
X100773337Y-92363348D02*
X100954765Y-92423824D01*
X101257146Y-92423824D01*
X101378099Y-92363348D01*
X101438575Y-92302871D01*
X101499051Y-92181919D01*
X101499051Y-92060967D01*
X101438575Y-91940014D01*
X101378099Y-91879538D01*
X101257146Y-91819062D01*
X101015242Y-91758586D01*
X100894289Y-91698110D01*
X100833813Y-91637633D01*
X100773337Y-91516681D01*
X100773337Y-91395729D01*
X100833813Y-91274776D01*
X100894289Y-91214300D01*
X101015242Y-91153824D01*
X101317622Y-91153824D01*
X101499051Y-91214300D01*
X101922385Y-91153824D02*
X102224766Y-92423824D01*
X102466670Y-91516681D01*
X102708575Y-92423824D01*
X103010956Y-91153824D01*
X104160004Y-92423824D02*
X103434290Y-92423824D01*
X103797147Y-92423824D02*
X103797147Y-91153824D01*
X103676195Y-91335252D01*
X103555242Y-91456205D01*
X103434290Y-91516681D01*
X101239997Y-96164748D02*
X101421425Y-96225224D01*
X101723806Y-96225224D01*
X101844759Y-96164748D01*
X101905235Y-96104271D01*
X101965711Y-95983319D01*
X101965711Y-95862367D01*
X101905235Y-95741414D01*
X101844759Y-95680938D01*
X101723806Y-95620462D01*
X101481902Y-95559986D01*
X101360949Y-95499510D01*
X101300473Y-95439033D01*
X101239997Y-95318081D01*
X101239997Y-95197129D01*
X101300473Y-95076176D01*
X101360949Y-95015700D01*
X101481902Y-94955224D01*
X101784282Y-94955224D01*
X101965711Y-95015700D01*
X102389045Y-94955224D02*
X102691426Y-96225224D01*
X102933330Y-95318081D01*
X103175235Y-96225224D01*
X103477616Y-94955224D01*
X103900950Y-95076176D02*
X103961426Y-95015700D01*
X104082378Y-94955224D01*
X104384759Y-94955224D01*
X104505712Y-95015700D01*
X104566188Y-95076176D01*
X104626664Y-95197129D01*
X104626664Y-95318081D01*
X104566188Y-95499510D01*
X103840474Y-96225224D01*
X104626664Y-96225224D01*
X105747048Y-104729333D02*
X105807524Y-104547905D01*
X105807524Y-104245524D01*
X105747048Y-104124571D01*
X105686571Y-104064095D01*
X105565619Y-104003619D01*
X105444667Y-104003619D01*
X105323714Y-104064095D01*
X105263238Y-104124571D01*
X105202762Y-104245524D01*
X105142286Y-104487428D01*
X105081810Y-104608381D01*
X105021333Y-104668857D01*
X104900381Y-104729333D01*
X104779429Y-104729333D01*
X104658476Y-104668857D01*
X104598000Y-104608381D01*
X104537524Y-104487428D01*
X104537524Y-104185048D01*
X104598000Y-104003619D01*
X104537524Y-103580285D02*
X105807524Y-103277904D01*
X104900381Y-103036000D01*
X105807524Y-102794095D01*
X104537524Y-102491714D01*
X104537524Y-102128856D02*
X104537524Y-101342666D01*
X105021333Y-101765999D01*
X105021333Y-101584571D01*
X105081810Y-101463618D01*
X105142286Y-101403142D01*
X105263238Y-101342666D01*
X105565619Y-101342666D01*
X105686571Y-101403142D01*
X105747048Y-101463618D01*
X105807524Y-101584571D01*
X105807524Y-101947428D01*
X105747048Y-102068380D01*
X105686571Y-102128856D01*
D11*
X70972381Y-105761905D02*
X71781905Y-105761905D01*
X71877143Y-105714286D01*
X71924762Y-105666667D01*
X71972381Y-105571429D01*
X71972381Y-105380952D01*
X71924762Y-105285714D01*
X71877143Y-105238095D01*
X71781905Y-105190476D01*
X70972381Y-105190476D01*
X71972381Y-104190476D02*
X71972381Y-104761905D01*
X71972381Y-104476191D02*
X70972381Y-104476191D01*
X71115238Y-104571429D01*
X71210476Y-104666667D01*
X71258095Y-104761905D01*
X76952381Y-110452382D02*
X75952381Y-110452382D01*
X76952381Y-109880953D02*
X76380952Y-110309525D01*
X75952381Y-109880953D02*
X76523810Y-110452382D01*
X76904762Y-109071429D02*
X76952381Y-109166667D01*
X76952381Y-109357144D01*
X76904762Y-109452382D01*
X76809524Y-109500001D01*
X76428571Y-109500001D01*
X76333333Y-109452382D01*
X76285714Y-109357144D01*
X76285714Y-109166667D01*
X76333333Y-109071429D01*
X76428571Y-109023810D01*
X76523810Y-109023810D01*
X76619048Y-109500001D01*
X76904762Y-108214286D02*
X76952381Y-108309524D01*
X76952381Y-108500001D01*
X76904762Y-108595239D01*
X76809524Y-108642858D01*
X76428571Y-108642858D01*
X76333333Y-108595239D01*
X76285714Y-108500001D01*
X76285714Y-108309524D01*
X76333333Y-108214286D01*
X76428571Y-108166667D01*
X76523810Y-108166667D01*
X76619048Y-108642858D01*
X76285714Y-107738096D02*
X77285714Y-107738096D01*
X76333333Y-107738096D02*
X76285714Y-107642858D01*
X76285714Y-107452381D01*
X76333333Y-107357143D01*
X76380952Y-107309524D01*
X76476190Y-107261905D01*
X76761905Y-107261905D01*
X76857143Y-107309524D01*
X76904762Y-107357143D01*
X76952381Y-107452381D01*
X76952381Y-107642858D01*
X76904762Y-107738096D01*
X76952381Y-106690477D02*
X76904762Y-106785715D01*
X76857143Y-106833334D01*
X76761905Y-106880953D01*
X76476190Y-106880953D01*
X76380952Y-106833334D01*
X76333333Y-106785715D01*
X76285714Y-106690477D01*
X76285714Y-106547619D01*
X76333333Y-106452381D01*
X76380952Y-106404762D01*
X76476190Y-106357143D01*
X76761905Y-106357143D01*
X76857143Y-106404762D01*
X76904762Y-106452381D01*
X76952381Y-106547619D01*
X76952381Y-106690477D01*
X76285714Y-105500000D02*
X76952381Y-105500000D01*
X76285714Y-105928572D02*
X76809524Y-105928572D01*
X76904762Y-105880953D01*
X76952381Y-105785715D01*
X76952381Y-105642857D01*
X76904762Y-105547619D01*
X76857143Y-105500000D01*
X76285714Y-105166667D02*
X76285714Y-104785715D01*
X75952381Y-105023810D02*
X76809524Y-105023810D01*
X76904762Y-104976191D01*
X76952381Y-104880953D01*
X76952381Y-104785715D01*
X75952381Y-103785714D02*
X75952381Y-103119047D01*
X76952381Y-103785714D01*
X76952381Y-103119047D01*
X76952381Y-102595238D02*
X76904762Y-102690476D01*
X76857143Y-102738095D01*
X76761905Y-102785714D01*
X76476190Y-102785714D01*
X76380952Y-102738095D01*
X76333333Y-102690476D01*
X76285714Y-102595238D01*
X76285714Y-102452380D01*
X76333333Y-102357142D01*
X76380952Y-102309523D01*
X76476190Y-102261904D01*
X76761905Y-102261904D01*
X76857143Y-102309523D01*
X76904762Y-102357142D01*
X76952381Y-102452380D01*
X76952381Y-102595238D01*
X76285714Y-101833333D02*
X76952381Y-101833333D01*
X76380952Y-101833333D02*
X76333333Y-101785714D01*
X76285714Y-101690476D01*
X76285714Y-101547618D01*
X76333333Y-101452380D01*
X76428571Y-101404761D01*
X76952381Y-101404761D01*
X76904762Y-100547618D02*
X76952381Y-100642856D01*
X76952381Y-100833333D01*
X76904762Y-100928571D01*
X76809524Y-100976190D01*
X76428571Y-100976190D01*
X76333333Y-100928571D01*
X76285714Y-100833333D01*
X76285714Y-100642856D01*
X76333333Y-100547618D01*
X76428571Y-100499999D01*
X76523810Y-100499999D01*
X76619048Y-100976190D01*
D14*
X112717524Y-101809619D02*
X113745619Y-101809619D01*
X113866571Y-101749143D01*
X113927048Y-101688667D01*
X113987524Y-101567714D01*
X113987524Y-101325810D01*
X113927048Y-101204857D01*
X113866571Y-101144381D01*
X113745619Y-101083905D01*
X112717524Y-101083905D01*
X113140857Y-99934857D02*
X113987524Y-99934857D01*
X112657048Y-100237238D02*
X113564190Y-100539619D01*
X113564190Y-99753429D01*
D11*
X114688095Y-115352381D02*
X114688095Y-116161905D01*
X114735714Y-116257143D01*
X114783333Y-116304762D01*
X114878571Y-116352381D01*
X115069048Y-116352381D01*
X115164286Y-116304762D01*
X115211905Y-116257143D01*
X115259524Y-116161905D01*
X115259524Y-115352381D01*
X116164286Y-115352381D02*
X115973809Y-115352381D01*
X115878571Y-115400000D01*
X115830952Y-115447619D01*
X115735714Y-115590476D01*
X115688095Y-115780952D01*
X115688095Y-116161905D01*
X115735714Y-116257143D01*
X115783333Y-116304762D01*
X115878571Y-116352381D01*
X116069048Y-116352381D01*
X116164286Y-116304762D01*
X116211905Y-116257143D01*
X116259524Y-116161905D01*
X116259524Y-115923810D01*
X116211905Y-115828571D01*
X116164286Y-115780952D01*
X116069048Y-115733333D01*
X115878571Y-115733333D01*
X115783333Y-115780952D01*
X115735714Y-115828571D01*
X115688095Y-115923810D01*
%LPC*%
D15*
X81700000Y-91750000D03*
X123250000Y-91750000D03*
X123250000Y-118250000D03*
X81750000Y-118250000D03*
D16*
X86500000Y-116950000D03*
X88400000Y-116950000D03*
D17*
X106900000Y-91300000D03*
X106900000Y-93500000D03*
D18*
X112000000Y-91400000D03*
X109800000Y-91400000D03*
X105200000Y-112100000D03*
X103000000Y-112100000D03*
D19*
X92870000Y-91430000D03*
D20*
X95410000Y-91430000D03*
X97950000Y-91430000D03*
D19*
X90330000Y-91430000D03*
D20*
X87790000Y-91430000D03*
X85250000Y-91430000D03*
D21*
X123700000Y-111500000D03*
D22*
X122430000Y-111500000D03*
D21*
X123700000Y-114400000D03*
D22*
X122430000Y-114400000D03*
D19*
X98400000Y-118200000D03*
D20*
X100940000Y-118200000D03*
D23*
X95300000Y-119000000D03*
X85300000Y-119000000D03*
X110000000Y-119000000D03*
X120000000Y-119000000D03*
D18*
X104900000Y-98100000D03*
X102700000Y-98100000D03*
D17*
X106900000Y-95550000D03*
X106900000Y-97750000D03*
X107750000Y-111200000D03*
X107750000Y-113400000D03*
D18*
X105200000Y-113600000D03*
X103000000Y-113600000D03*
D24*
X100625000Y-90825000D03*
X104775000Y-90825000D03*
X100625000Y-92975000D03*
X104775000Y-92975000D03*
X104775000Y-96675000D03*
X100625000Y-96675000D03*
X104775000Y-94525000D03*
X100625000Y-94525000D03*
D25*
X103000000Y-100900000D03*
X103000000Y-103400000D03*
X103000000Y-105900000D03*
X107400000Y-100900000D03*
X107400000Y-103400000D03*
X107400000Y-105900000D03*
D26*
X81500000Y-114500000D03*
X82770000Y-114500000D03*
X84040000Y-114500000D03*
X85310000Y-114500000D03*
X86580000Y-114500000D03*
X87850000Y-114500000D03*
X89120000Y-114500000D03*
X90390000Y-114500000D03*
X91660000Y-114500000D03*
X92930000Y-114500000D03*
X94200000Y-114500000D03*
X95470000Y-114500000D03*
X96740000Y-114500000D03*
X98010000Y-114500000D03*
D27*
X100000000Y-110700000D03*
X99950000Y-109420000D03*
X99950000Y-108150000D03*
X99950000Y-106880000D03*
X99950000Y-105610000D03*
X99950000Y-104340000D03*
X99950000Y-103070000D03*
X99950000Y-101800000D03*
X99950000Y-100530000D03*
X99950000Y-99260000D03*
D26*
X98010000Y-95450000D03*
X96740000Y-95450000D03*
X95470000Y-95450000D03*
X94200000Y-95450000D03*
X92930000Y-95450000D03*
X91660000Y-95450000D03*
X90390000Y-95450000D03*
X89120000Y-95450000D03*
X87850000Y-95450000D03*
X86580000Y-95450000D03*
X85310000Y-95450000D03*
X84040000Y-95450000D03*
X82770000Y-95450000D03*
X81500000Y-95450000D03*
D28*
X90200000Y-105650000D03*
D29*
X114820000Y-102300000D03*
X112180000Y-102300000D03*
X114820000Y-101900000D03*
X112180000Y-101900000D03*
X114820000Y-101500000D03*
X112180000Y-101500000D03*
X114820000Y-101100000D03*
X112180000Y-101100000D03*
X114820000Y-100700000D03*
X112180000Y-100700000D03*
X114820000Y-100300000D03*
X112180000Y-100300000D03*
X114820000Y-99900000D03*
X112180000Y-99900000D03*
X114820000Y-99500000D03*
X112180000Y-99500000D03*
X114820000Y-99100000D03*
X112180000Y-99100000D03*
X114820000Y-98700000D03*
X112180000Y-98700000D03*
D23*
X109800000Y-114100000D03*
X112340000Y-114100000D03*
X114880000Y-114100000D03*
X117420000Y-114100000D03*
X119960000Y-114100000D03*
D15*
X123250000Y-122750000D03*
X123250000Y-149250000D03*
X81700000Y-149250000D03*
X81750000Y-122750000D03*
D23*
X89060000Y-147900000D03*
X94140000Y-147900000D03*
X111060000Y-147900000D03*
X116140000Y-147900000D03*
D19*
X90100000Y-141400000D03*
D20*
X92640000Y-141400000D03*
D19*
X112600000Y-141400000D03*
D20*
X115140000Y-141400000D03*
M02*
