G04 #@! TF.FileFunction,Soldermask,Top*
%FSLAX46Y46*%
G04 Gerber Fmt 4.6, Leading zero omitted, Abs format (unit mm)*
G04 Created by KiCad (PCBNEW 4.0.1-stable) date 2019/02/07 19:56:50*
%MOMM*%
G01*
G04 APERTURE LIST*
%ADD10C,0.100000*%
%ADD11C,2.600000*%
%ADD12R,1.600000X1.150000*%
%ADD13R,1.300000X1.600000*%
%ADD14R,1.600000X1.300000*%
%ADD15R,2.100000X2.100000*%
%ADD16O,2.100000X2.100000*%
%ADD17R,1.400000X1.400000*%
%ADD18O,1.400000X1.400000*%
%ADD19C,1.924000*%
%ADD20R,1.450000X1.050000*%
%ADD21R,1.800000X1.600000*%
%ADD22R,1.300000X3.400000*%
%ADD23R,3.400000X1.300000*%
%ADD24R,4.400000X4.400000*%
%ADD25R,1.540000X0.600000*%
G04 APERTURE END LIST*
D10*
D11*
X81700000Y-91750000D03*
X123250000Y-91750000D03*
X123250000Y-118250000D03*
X81750000Y-118250000D03*
D12*
X86500000Y-116950000D03*
X88400000Y-116950000D03*
D13*
X106900000Y-91300000D03*
X106900000Y-93500000D03*
D14*
X112000000Y-91400000D03*
X109800000Y-91400000D03*
X105200000Y-112100000D03*
X103000000Y-112100000D03*
D15*
X92870000Y-91430000D03*
D16*
X95410000Y-91430000D03*
X97950000Y-91430000D03*
D15*
X90330000Y-91430000D03*
D16*
X87790000Y-91430000D03*
X85250000Y-91430000D03*
D17*
X123700000Y-111500000D03*
D18*
X122430000Y-111500000D03*
D17*
X123700000Y-114400000D03*
D18*
X122430000Y-114400000D03*
D15*
X98400000Y-118200000D03*
D16*
X100940000Y-118200000D03*
D19*
X95300000Y-119000000D03*
X85300000Y-119000000D03*
X110000000Y-119000000D03*
X120000000Y-119000000D03*
D14*
X104900000Y-98100000D03*
X102700000Y-98100000D03*
D13*
X106900000Y-95550000D03*
X106900000Y-97750000D03*
X107750000Y-111200000D03*
X107750000Y-113400000D03*
D14*
X105200000Y-113600000D03*
X103000000Y-113600000D03*
D20*
X100625000Y-90825000D03*
X104775000Y-90825000D03*
X100625000Y-92975000D03*
X104775000Y-92975000D03*
X104775000Y-96675000D03*
X100625000Y-96675000D03*
X104775000Y-94525000D03*
X100625000Y-94525000D03*
D21*
X103000000Y-100900000D03*
X103000000Y-103400000D03*
X103000000Y-105900000D03*
X107400000Y-100900000D03*
X107400000Y-103400000D03*
X107400000Y-105900000D03*
D22*
X81500000Y-114500000D03*
X82770000Y-114500000D03*
X84040000Y-114500000D03*
X85310000Y-114500000D03*
X86580000Y-114500000D03*
X87850000Y-114500000D03*
X89120000Y-114500000D03*
X90390000Y-114500000D03*
X91660000Y-114500000D03*
X92930000Y-114500000D03*
X94200000Y-114500000D03*
X95470000Y-114500000D03*
X96740000Y-114500000D03*
X98010000Y-114500000D03*
D23*
X100000000Y-110700000D03*
X99950000Y-109420000D03*
X99950000Y-108150000D03*
X99950000Y-106880000D03*
X99950000Y-105610000D03*
X99950000Y-104340000D03*
X99950000Y-103070000D03*
X99950000Y-101800000D03*
X99950000Y-100530000D03*
X99950000Y-99260000D03*
D22*
X98010000Y-95450000D03*
X96740000Y-95450000D03*
X95470000Y-95450000D03*
X94200000Y-95450000D03*
X92930000Y-95450000D03*
X91660000Y-95450000D03*
X90390000Y-95450000D03*
X89120000Y-95450000D03*
X87850000Y-95450000D03*
X86580000Y-95450000D03*
X85310000Y-95450000D03*
X84040000Y-95450000D03*
X82770000Y-95450000D03*
X81500000Y-95450000D03*
D24*
X90200000Y-105650000D03*
D25*
X114820000Y-102300000D03*
X112180000Y-102300000D03*
X114820000Y-101900000D03*
X112180000Y-101900000D03*
X114820000Y-101500000D03*
X112180000Y-101500000D03*
X114820000Y-101100000D03*
X112180000Y-101100000D03*
X114820000Y-100700000D03*
X112180000Y-100700000D03*
X114820000Y-100300000D03*
X112180000Y-100300000D03*
X114820000Y-99900000D03*
X112180000Y-99900000D03*
X114820000Y-99500000D03*
X112180000Y-99500000D03*
X114820000Y-99100000D03*
X112180000Y-99100000D03*
X114820000Y-98700000D03*
X112180000Y-98700000D03*
D19*
X109800000Y-114100000D03*
X112340000Y-114100000D03*
X114880000Y-114100000D03*
X117420000Y-114100000D03*
X119960000Y-114100000D03*
D11*
X123250000Y-122750000D03*
X123250000Y-149250000D03*
X81700000Y-149250000D03*
X81750000Y-122750000D03*
D19*
X89060000Y-147900000D03*
X94140000Y-147900000D03*
X111060000Y-147900000D03*
X116140000Y-147900000D03*
D15*
X90100000Y-141400000D03*
D16*
X92640000Y-141400000D03*
D15*
X112600000Y-141400000D03*
D16*
X115140000Y-141400000D03*
M02*
